<?xml version="1.0" encoding="utf-8"?>
<!-- Generator: Adobe Illustrator 18.0.0, SVG Export Plug-In . SVG Version: 6.00 Build 0)  -->
<!DOCTYPE svg PUBLIC "-//W3C//DTD SVG 1.1//EN" "http://www.w3.org/Graphics/SVG/1.1/DTD/svg11.dtd">
<svg version="1.1" id="Layer_1" xmlns="http://www.w3.org/2000/svg" xmlns:xlink="http://www.w3.org/1999/xlink" x="0px" y="0px"
	 viewBox="0 0 175 175" enable-background="new 0 0 175 175" xml:space="preserve">
<path fill="#FFFFFF" d="M87.5,0C39.4,0,0,39.4,0,87.5S39.4,175,87.5,175S175,135.6,175,87.5S135.6,0,87.5,0z M60.3,89.1
	c0,8.4-6.6,15-15,15c-8.7,0-15-6.3-15-15c0-8.1,6.9-15,15-15S60.3,81,60.3,89.1z M103.5,89.1c0,8.4-6.6,15-15,15
	c-8.1,0-15-6.9-15-15s6.9-15,15-15C96.7,74.2,103.5,81,103.5,89.1z M146.8,89.1c0,8.4-6.6,15-15,15c-8.1,0-15-6.9-15-15
	s6.9-15,15-15C139.9,74.2,146.8,81,146.8,89.1z"/>
</svg>
