<svg xmlns="http://www.w3.org/2000/svg" width="545.027" height="545.027" viewBox="0 0 545.027 545.027">
  <path
    d="M540.743 281.356c-4.18-8.754-10.568-15.464-19.123-20.12-8.566-4.665-17.987-6.995-28.264-6.995h-54.82V208.56c0-17.51-6.282-32.548-18.842-45.11-12.566-12.563-27.604-18.843-45.11-18.843H219.267v-9.136c0-17.512-6.283-32.55-18.842-45.108-12.564-12.562-27.6-18.846-45.11-18.846H63.952c-17.51 0-32.548 6.283-45.11 18.846C6.28 102.922 0 117.96 0 135.47v274.088c0 17.508 6.28 32.545 18.842 45.104 12.563 12.565 27.6 18.85 45.11 18.85H374.59c12.747 0 26.07-3.286 39.97-9.856 13.895-6.563 24.928-14.894 33.113-24.98l84.227-103.64c8.754-11.036 13.127-22.452 13.127-34.26.004-6.853-1.424-13.318-4.284-19.42zM36.547 135.474c0-7.61 2.663-14.084 7.993-19.414 5.326-5.327 11.8-7.993 19.414-7.993h91.365c7.614 0 14.083 2.663 19.413 7.993 5.327 5.33 7.993 11.803 7.993 19.414v18.274c0 7.616 2.667 14.087 7.994 19.414s11.798 7.994 19.412 7.994h164.452c7.61 0 14.09 2.666 19.418 7.993 5.324 5.325 7.99 11.798 7.99 19.413v45.682H182.725c-12.94 0-26.27 3.284-39.973 9.85-13.706 6.568-24.744 14.894-33.12 24.987l-73.085 89.93V135.475zm466.798 176.443l-83.94 103.637c-4.752 5.9-11.51 10.943-20.27 15.125-8.755 4.188-16.94 6.282-24.552 6.282H63.953c-10.088 0-15.13-3.333-15.13-9.992 0-3.046 1.712-6.852 5.14-11.427L137.9 311.91c4.95-5.903 11.75-10.896 20.413-14.99 8.658-4.092 16.796-6.14 24.41-6.14h310.632c10.088 0 15.13 3.334 15.13 9.994 0 3.245-1.707 6.954-5.14 11.143z"/>
</svg>
