<?xml version="1.0" encoding="utf-8"?>
<!-- Generator: Adobe Illustrator 20.1.0, SVG Export Plug-In . SVG Version: 6.00 Build 0)  -->
<svg version="1.1" id="Layer_1" xmlns="http://www.w3.org/2000/svg" xmlns:xlink="http://www.w3.org/1999/xlink" x="0px" y="0px"
	 viewBox="0 0 768 768" style="enable-background:new 0 0 768 768;" xml:space="preserve">
<style type="text/css">
	.st0{fill:#FFFFFF;}
</style>
<view  id="play-view" preserveAspectRatio="xMidYMid meet" viewBox="0 0 25 25" zoomAndPan="magnify"></view>
<view  id="play-fill-view" preserveAspectRatio="xMidYMid meet" viewBox="25 0 25 25" zoomAndPan="magnify"></view>
<view  id="pause-view" preserveAspectRatio="xMidYMid meet" viewBox="50 0 25 25" zoomAndPan="magnify"></view>
<view  id="pause-fill-view" preserveAspectRatio="xMidYMid meet" viewBox="75 0 25 25" zoomAndPan="magnify"></view>
<g>
	<path class="st0" d="M330.5,234.1h-61.6c-3.5,0-6.1,2.6-6.1,6.1v287.8c0,3.5,2.6,6.1,6.1,6.1h61.6c3.5,0,6.1-2.6,6.1-6.1V240.2
		C336.6,236.7,334,234.1,330.5,234.1z"/>
	<path class="st0" d="M494.2,234.1h-61.6c-3.5,0-6.1,2.6-6.1,6.1v287.8c0,3.5,2.6,6.1,6.1,6.1h61.6c3.5,0,6.1-2.6,6.1-6.1V240.2
		C500.3,236.7,497.7,234.1,494.2,234.1z"/>
</g>
</svg>
