<?xml version="1.0" encoding="utf-8"?>
<!-- Generator: Adobe Illustrator 20.1.0, SVG Export Plug-In . SVG Version: 6.00 Build 0)  -->
<svg version="1.1" id="Layer_1" xmlns="http://www.w3.org/2000/svg" xmlns:xlink="http://www.w3.org/1999/xlink" x="0px" y="0px"
	 viewBox="0 0 100 100" style="enable-background:new 0 0 100 100;" xml:space="preserve">
<style type="text/css">
	.st0{fill:#FFFFFF;}
</style>
<view  id="play-view" preserveAspectRatio="xMidYMid meet" viewBox="0 0 25 25" zoomAndPan="magnify"></view>
<view  id="play-fill-view" preserveAspectRatio="xMidYMid meet" viewBox="25 0 25 25" zoomAndPan="magnify"></view>
<view  id="pause-view" preserveAspectRatio="xMidYMid meet" viewBox="50 0 25 25" zoomAndPan="magnify"></view>
<view  id="pause-fill-view" preserveAspectRatio="xMidYMid meet" viewBox="75 0 25 25" zoomAndPan="magnify"></view>
<g>
	<path class="st0" d="M46.1,38.5h-4.7c-0.3,0-0.5,0.2-0.5,0.5v22.1c0,0.3,0.2,0.5,0.5,0.5h4.7c0.3,0,0.5-0.2,0.5-0.5V38.9
		C46.5,38.7,46.3,38.5,46.1,38.5z"/>
	<path class="st0" d="M58.7,38.5H54c-0.3,0-0.5,0.2-0.5,0.5v22.1c0,0.3,0.2,0.5,0.5,0.5h4.7c0.3,0,0.5-0.2,0.5-0.5V38.9
		C59.1,38.7,58.9,38.5,58.7,38.5z"/>
</g>
</svg>
