<?xml version="1.0" encoding="utf-8"?>
<!-- Generator: Adobe Illustrator 20.1.0, SVG Export Plug-In . SVG Version: 6.00 Build 0)  -->
<svg version="1.1" id="Layer_1" xmlns="http://www.w3.org/2000/svg" xmlns:xlink="http://www.w3.org/1999/xlink" x="0px" y="0px"
	 viewBox="0 0 100 100" style="enable-background:new 0 0 100 100;" xml:space="preserve">
<style type="text/css">
	.st0{fill:#FFFFFF;}
</style>
<path class="st0" d="M50,0C22.4,0,0,22.4,0,50s22.4,50,50,50s50-22.4,50-50S77.6,0,50,0z M61.9,51.8l-18,10.5
	c-0.5,0.2-0.8,0.2-1,0.2c-0.3,0-0.5,0-0.9-0.2l-0.1-0.1c-0.6-0.4-0.9-1-0.9-1.7v-21c0-0.7,0.3-1.3,0.9-1.7c0.6-0.4,1.5-0.4,2.1,0
	l17.9,10.5c0.7,0.4,1,1.1,1,1.8C62.9,50.8,62.6,51.4,61.9,51.8z"/>
</svg>
