<?xml version="1.0" encoding="utf-8"?>
<svg version="1.1" id="Layer_1" xmlns="http://www.w3.org/2000/svg" xmlns:xlink="http://www.w3.org/1999/xlink" x="0px" y="0px"
		 viewBox="0 0 150 150" style="enable-background:new 0 0 768 768;" xml:space="preserve">
  <path fill="#fff" d="M75.6,97H31.3c-1.5,0-2.8,1.5-2.8,3s1.2,3,2.8,3h44.4c1.5,0,2.8-1.5,2.8-3S77.2,97,75.6,97z"/>
  <path fill="#fff" d="M31.3,36h83.2c1.5,0,2.8-1,2.8-2.5S116,31,114.4,31H31.3c-1.5,0-2.8,1-2.8,2.5S29.8,36,31.3,36z"/>
  <path fill="#fff" d="M31.3,70h83.2c1.5,0,2.8-1.5,2.8-3s-1.2-3-2.8-3H31.3c-1.5,0-2.8,1.5-2.8,3S29.8,70,31.3,70z"/>
  <path fill="#fff" d="M127.1,103.7L96.4,86c-0.9-0.5-2.1-0.5-2.9,0c-0.9,0.5-1.5,1.4-1.5,2.4v35.5c0,1,0.7,1.9,1.5,2.4
    c0.4,0.2,1,0.4,1.5,0.4c0.5,0,1-0.1,1.4-0.4l30.7-17.7c0.9-0.5,1.4-1.4,1.4-2.4C128.5,105.1,128,104.2,127.1,103.7z M98,119V93.2
    l22.4,12.9L98,119z"/>
</svg>

