<?xml version="1.0" encoding="utf-8"?>
<svg version="1.1" id="Layer_1" xmlns="http://www.w3.org/2000/svg" xmlns:xlink="http://www.w3.org/1999/xlink" x="0px" y="0px"
		 viewBox="0 0 150 150" style="enable-background:new 0 0 768 768;" xml:space="preserve">
    <path fill="#fff" d="M31.5,22.2c2.2,0,4.5,1.8,4.5,4v95.7c0,2.2-2.3,4-4.5,4s-4.5-1.8-4.5-4V26.2C27,23.9,29.3,22.2,31.5,22.2z"/>
    <path fill="#fff" d="M120.3,28.4c1.2-1,2.9-1.2,4.3-0.5c1.4,0.7,2.4,2.1,2.4,3.6v88.3c0,1.5-1,2.9-2.4,3.6
      c-0.6,0.3-1.2,0.4-1.8,0.4c-0.9,0-1.8-0.3-2.5-0.9L66,79.3c-0.9-0.8-1.5-1.9-1.5-3.1c0-1.2,0.5-2.3,1.5-3.1L120.3,28.4z"/>
</svg>
