<?xml version="1.0" encoding="utf-8"?>
<svg version="1.1" id="Layer_1" xmlns="http://www.w3.org/2000/svg" xmlns:xlink="http://www.w3.org/1999/xlink" x="0px" y="0px"
		 viewBox="0 0 150 150" style="enable-background:new 0 0 768 768;" xml:space="preserve">
    <path fill="#fff" d="M122.5,22.2c-2.2,0-4.5,1.8-4.5,4v95.7c0,2.2,2.3,4,4.5,4s4.5-1.8,4.5-4V26.2
      C127,23.9,124.7,22.2,122.5,22.2z"/>
    <path fill="#fff" d="M33.7,28.4c-1.2-1-2.9-1.2-4.3-0.5C28,28.6,27,30,27,31.5v88.3c0,1.5,1,2.9,2.4,3.6
      c0.6,0.3,1.2,0.4,1.8,0.4c0.9,0,1.8-0.3,2.5-0.9L88,79.3c0.9-0.8,1.5-1.9,1.5-3.1c0-1.2-0.5-2.3-1.5-3.1L33.7,28.4z"/>
</svg>
