<?xml version="1.0" encoding="utf-8"?>
<!DOCTYPE svg PUBLIC "-//W3C//DTD SVG 1.1//EN" "http://www.w3.org/Graphics/SVG/1.1/DTD/svg11.dtd">
<svg version="1.1" xmlns="http://www.w3.org/2000/svg">

  <!-- APP BUTTONS -->

  <symbol id="app-minimize" viewBox="0 0 53.3 53.3">
    <circle fill="currentColor" cx="26.6" cy="26.6" r="26.6"/>
    <polygon fill="#FFFFFF" points="28.6,28.4 39.6,28.4 39.6,24.7 28.6,24.7 24.9,24.7 13.9,24.7 13.9,28.4 24.9,28.4"/>
  </symbol>

  <symbol id="app-maximize" viewBox="0 0 53.3 53.3">
    <circle fill="currentColor" cx="26.6" cy="26.6" r="26.6"/>
    <polygon fill="#FFFFFF" points="28.4,13.7 24.7,13.7 24.7,24.7 13.7,24.7 13.7,28.4 24.7,28.4 24.7,39.4 28.4,39.4 28.4,28.4
      39.4,28.4 39.4,24.7 28.4,24.7"/>
  </symbol>

  <symbol id="app-empty" viewBox="0 0 53.3 53.3">
    <circle fill="currentColor" cx="27.1" cy="26.5" r="26.6"/>
  </symbol>

  <symbol id="app-close" viewBox="0 0 53.3 53.3">
    <circle fill="currentColor" cx="26.6" cy="26.6" r="26.6"/>
    <circle fill="#FFFFFF" cx="26.6" cy="26.6" r="9.8"/>
  </symbol>

  <!-- CONTROLS -->

  <symbol id="play-mini" viewBox="0 0 150 150">
    <path fill="currentColor" d="M92.4,73.3L68,59.2c-0.6-0.3-1.4-0.3-2,0.1c-0.6,0.3-1.1,0.7-1.1,1.7l0,0L65,89.1v0c0,0.7,0.4,1.3,1.1,1.7
      c0.3,0.2,0.8,0.3,1.1,0.3c0.3,0,0.6-0.1,0.9-0.3l24.4-14.1c0.6-0.3,1-1,1-1.7C93.4,74.3,93,73.6,92.4,73.3z"/>
  </symbol>

  <symbol id="skip-previous" viewBox="0 0 150 150">
    <path fill="currentColor" d="M31.5,22.2c2.2,0,4.5,1.8,4.5,4v95.7c0,2.2-2.3,4-4.5,4s-4.5-1.8-4.5-4V26.2C27,23.9,29.3,22.2,31.5,22.2z"/>
    <path fill="currentColor" d="M120.3,28.4c1.2-1,2.9-1.2,4.3-0.5c1.4,0.7,2.4,2.1,2.4,3.6v88.3c0,1.5-1,2.9-2.4,3.6
      c-0.6,0.3-1.2,0.4-1.8,0.4c-0.9,0-1.8-0.3-2.5-0.9L66,79.3c-0.9-0.8-1.5-1.9-1.5-3.1c0-1.2,0.5-2.3,1.5-3.1L120.3,28.4z"/>
  </symbol>

  <symbol id="skip-next" viewBox="0 0 150 150">
    <path fill="currentColor" d="M122.5,22.2c-2.2,0-4.5,1.8-4.5,4v95.7c0,2.2,2.3,4,4.5,4s4.5-1.8,4.5-4V26.2
      C127,23.9,124.7,22.2,122.5,22.2z"/>
    <path fill="currentColor" d="M33.7,28.4c-1.2-1-2.9-1.2-4.3-0.5C28,28.6,27,30,27,31.5v88.3c0,1.5,1,2.9,2.4,3.6
      c0.6,0.3,1.2,0.4,1.8,0.4c0.9,0,1.8-0.3,2.5-0.9L88,79.3c0.9-0.8,1.5-1.9,1.5-3.1c0-1.2-0.5-2.3-1.5-3.1L33.7,28.4z"/>
  </symbol>

  <symbol id="skip-previous" viewBox="0 0 150 150">
    <path class="st0" d="M58,78.5l38.1,29.8c0.8,0.6,1.7,0.7,2.6,0.3c0.8-0.4,1.4-1.3,1.4-2.2V46.7c0-0.9-0.5-1.8-1.4-2.2
  		c-0.3-0.2-0.7-0.3-1.1-0.3c-0.5,0-1.1,0.2-1.5,0.5L58,74.6c-0.6,0.5-0.9,1.2-0.9,1.9C57.1,77.3,57.4,78,58,78.5z"/>
  	<path class="st0" d="M52.5,108.7c1.4,0,2.4-1.1,2.4-2.4V46.7c0-1.4-1.1-2.4-2.4-2.4c-1.4,0-2.4,1.1-2.4,2.4v59.5
  		C50.1,107.6,51.2,108.7,52.5,108.7z"/>
  </symbol>

  <symbol id="skip-next" viewBox="0 0 150 150">
    <path class="st0" d="M92.2,74.6L54.1,44.8c-0.8-0.6-1.7-0.7-2.6-0.3c-0.8,0.4-1.4,1.3-1.4,2.2v59.6c0,0.9,0.5,1.8,1.4,2.2
  		c0.3,0.2,0.7,0.3,1.1,0.3c0.5,0,1.1-0.2,1.5-0.5l38.1-29.8c0.6-0.5,0.9-1.2,0.9-1.9C93.1,75.8,92.8,75.1,92.2,74.6z"/>
  	<path class="st0" d="M97.7,44.3c-1.4,0-2.4,1.1-2.4,2.4v59.5c0,1.4,1.1,2.4,2.4,2.4c1.4,0,2.4-1.1,2.4-2.4V46.8
  		C100.1,45.4,99,44.3,97.7,44.3z"/>
  </symbol>


  <symbol id="repeat" viewBox="0 0 100 100">
    <path fill="currentColor" d="M75,52.7c-1,0-1.7,0.8-1.7,1.7v13.9H29.5l8.7-9.1c0.7-0.7,0.6-1.8-0.1-2.5c-0.7-0.7-1.8-0.6-2.5,0.1
      L24.1,69.1c-0.7,0.7-0.7,1.7-0.1,2.4l10.8,12.3c0.3,0.4,0.8,0.6,1.3,0.6c0.4,0,0.8-0.1,1.1-0.5c0.7-0.7,0.8-1.9,0.1-2.6l-8.3-9.6
      h46.1c1,0,1.5-0.5,1.5-1.5V54.5C76.7,53.5,76,52.7,75,52.7z"/>
    <path fill="currentColor" d="M26.3,47.7c1,0,1.7-0.8,1.7-1.7V32.3h44.1l-8.7,9c-0.7,0.7-0.6,1.7,0.1,2.4c0.7,0.7,1.8,0.6,2.5-0.1
      l11.5-12.3c0.7-0.7,0.7-1.7,0.1-2.4L66.7,16.7c-0.3-0.4-0.8-0.6-1.3-0.6c-0.4,0-0.8,0.1-1.1,0.5c-0.7,0.7-0.8,2.1-0.1,2.7l8.4,9.7
      H26.4c-1,0-1.7,0.2-1.7,1.1v15.7C24.7,46.9,25.3,47.7,26.3,47.7z"/>
  </symbol>

  <symbol id="shuffle" viewBox="0 0 150 150">
    <path fill="currentColor" d="M118.4,63.7c0,1.8,1.5,3.3,3.3,3.3h0c1.8,0,3.3-1.5,3.3-3.3L125,29.2c0-1.8-1.4-3.2-3.2-3.3l-35-1.2
      c-2-0.2-3.4,1.4-3.4,3.2c-0.1,1.8,1.4,3.4,3.2,3.4l27.6,0.9l-87,87c-1.3,1.3-1.3,3.4,0,4.7c0.6,0.6,1.5,1,2.3,1s1.7-0.3,2.3-1
      l86.5-86.5L118.4,63.7z"/>
    <path fill="currentColor" d="M122.5,83c0,0-0.1,0-0.1,0c-1.8,0-3.2,1.2-3.3,3l-0.9,27.4L94,89.1c-1.3-1.3-3.4-1.3-4.7,0
      c-1.3,1.3-1.3,3.4,0,4.7l23.7,23.7l-26.3,0c-1.8,0-4.2,1.5-4.2,3.3c0,1.8,2.5,3.3,2.5,3.3v0l35.4,0c1.8,0,3.7-1.4,3.7-3.1l1.4-34.9
      C125.6,84.3,124.3,83,122.5,83z"/>
    <path fill="currentColor" d="M59.2,63.7c0.6,0.6,1.5,1,2.3,1s1.7-0.3,2.3-1c1.3-1.3,1.3-3.4,0-4.7L31.2,26.3c-1.3-1.3-3.4-1.3-4.7,0
          c-1.3,1.3-1.3,3.4,0,4.7L59.2,63.7z"/>
  </symbol>

  <symbol id="edit" viewBox="0 0 150 150">
    <path fill="currentColor" d="M122.8,45.6l-22.1-22.1c-1-1-2.6-1-3.6,0L24.3,96.4c-0.5,0.5-0.8,1.2-0.7,1.9l1.2,20.9
      c0.1,1.3,1.1,1.5,2.4,1.6l19.8,1.2c0,0,2.1,0.2,3-0.7l72.8-72.4C123.8,47.8,123.8,46.6,122.8,45.6z M47.2,117.6l-17.5-1l-1-17.5
      l60.8-60.8L108,56.8L47.2,117.6z M111.6,53.2L93.1,34.7l5.8-5.8l18.5,18.5L111.6,53.2z"/>
  </symbol>

  <symbol id="close" viewBox="0 0 100 100">
    <path fill="currentColor" class="st0" d="M54.3,50l32.7-32.7c1-1,1-2.6,0-3.5c-1-1-2.6-1-3.5,0L50.7,46.5L18.1,13.8c-1-1-2.6-1-3.5,0c-1,1-1,2.6,0,3.5
    	L47.2,50L14.5,82.7c-1,1-1,2.6,0,3.5c0.5,0.5,1.1,0.7,1.8,0.7s1.3-0.2,1.8-0.7l32.7-32.7l32.7,32.7c0.5,0.5,1.1,0.7,1.8,0.7
    	s1.3-0.2,1.8-0.7c1-1,1-2.6,0-3.5L54.3,50z"/>
  </symbol>

  <symbol id="move" viewBox="0 0 150 150">
    <path fill="currentColor" d="M85.8,35.3c0-5.6-4.6-10.3-10.3-10.3c-5.6,0-10.3,4.6-10.3,10.3s4.6,10.3,10.3,10.3
    C81.2,45.6,85.8,40.9,85.8,35.3z"/>
    <path fill="currentColor" d="M85.8,75.1c0-5.6-4.6-10.3-10.3-10.3c-5.6,0-10.3,4.6-10.3,10.3c0,5.6,4.6,10.3,10.3,10.3
      C81.2,85.4,85.8,80.9,85.8,75.1z"/>
    <path fill="currentColor" d="M85.8,115c0-5.6-4.6-10.3-10.3-10.3c-5.6,0-10.3,4.6-10.3,10.3c0,5.6,4.6,10.3,10.3,10.3
      C81.2,125.3,85.8,120.7,85.8,115z"/>
  </symbol>

  <symbol id="details" viewBox="0 0 150 150">
    <path fill="currentColor" d="M43.2,66.7c-4.5,0-8.2,3.7-8.2,8.2s3.7,8.2,8.2,8.2c4.5,0,8.2-3.7,8.2-8.2S47.7,66.7,43.2,66.7z"/>
    <path fill="currentColor" d="M75,66.7c-4.5,0-8.2,3.7-8.2,8.2s3.7,8.2,8.2,8.2c4.5,0,8.2-3.7,8.2-8.2S79.6,66.7,75,66.7z"/>
    <path fill="currentColor" d="M106.9,66.7c-4.5,0-8.2,3.7-8.2,8.2s3.7,8.2,8.2,8.2c4.5,0,8.2-3.7,8.2-8.2S111.4,66.7,106.9,66.7z"/>
  </symbol>

  <!-- MENU BUTTONS -->

  <symbol id="menu" viewBox="0 0 150 150">
    <path fill="currentColor" d="M85.8,35.3c0-5.6-4.6-10.3-10.3-10.3c-5.6,0-10.3,4.6-10.3,10.3s4.6,10.3,10.3,10.3
      C81.2,45.6,85.8,40.9,85.8,35.3z"/>
    <path fill="currentColor" d="M85.8,75.1c0-5.6-4.6-10.3-10.3-10.3c-5.6,0-10.3,4.6-10.3,10.3c0,5.6,4.6,10.3,10.3,10.3
      C81.2,85.4,85.8,80.9,85.8,75.1z"/>
    <path fill="currentColor" d="M85.8,115c0-5.6-4.6-10.3-10.3-10.3c-5.6,0-10.3,4.6-10.3,10.3c0,5.6,4.6,10.3,10.3,10.3
      C81.2,125.3,85.8,120.7,85.8,115z"/>
  </symbol>

  <!-- <symbol id="artist" viewBox="0 0 100 100">
    <path fill="currentColor" d="M50.3,61.3c8,0,14.3-6.5,14.3-14.5V23.6c0-8-6.3-14.5-14.3-14.5s-14.3,6.4-14.3,14.5v23.2
      C36.1,54.8,42.4,61.3,50.3,61.3z M39.3,23.6c0-6,5-10.9,11-10.9s11,4.9,11,10.9v24.1h-22V23.6z"/>
    <path fill="currentColor" d="M76,46.6c0-1-0.8-1.8-1.8-1.8c-1,0-1.8,0.8-1.8,1.8C72.4,59,62.4,69,50,69S27.7,59,27.7,46.6
      c0-1-0.8-1.8-1.8-1.8c-1,0-1.8,0.8-1.8,1.8c0,14.2,11.2,25.7,25.3,25.9c0,0.1-0.2,0.2-0.2,0.2v14.2h-6.8c-1,0-1.8,1.1-1.8,2
      c0,1,0.8,2,1.8,2h17.8c1,0,1.8-1.1,1.8-2c0-1-0.8-2-1.8-2h-7V72.7c0-0.2-0.1-0.2-0.2-0.3C66,70.9,76,59.9,76,46.6z"/>
  </symbol> -->

  <symbol id="artist" viewBox="0 0 100 100">
    <path fill="currentColor" class="st0" d="M50.1,61.8c7.7,0,13.9-6.3,13.9-14.1V24.4c0-7.8-6.2-14.1-13.9-14.1c-7.8,0-13.9,6.2-13.9,14.1v23.2
  		C36.2,55.4,42.4,61.8,50.1,61.8z M40.5,24.4c0-5.5,4.2-9.8,9.6-9.8c5.3,0,9.6,4.4,9.6,9.8v23.2c0,5.4-4.3,9.8-9.6,9.8
  		s-9.6-4.4-9.6-9.8V24.4z"/>
  	<path fill="currentColor" class="st0" d="M73.6,50.6c0-1.1-0.9-2.1-2.1-2.1c-1.1,0-2.1,0.9-2.1,2.1c0,10.8-8.8,19.6-19.6,19.6
  		c-10.8,0-19.6-8.8-19.6-19.6c0-1.1-0.9-2.1-2.1-2.1c-1.1,0-2.1,0.9-2.1,2.1c0,12.8,9.8,23.1,22.4,23.7v12h-5.6
  		c-1.2,0-2.1,1.2-2.1,2.3c0,1.1,0.9,2.3,2.1,2.3h16c1.2,0,2.1-1.2,2.1-2.3c0-1.1-0.9-2.3-2.1-2.3h-5.8V74.1
  		C64.8,72.5,73.6,62.5,73.6,50.6z"/>
  </symbol>

  <!-- <symbol id="album" viewBox="0 0 100 100">
    <path fill="currentColor" d="M49.8,32.9c-9.4,0-17.1,7.7-17.1,17.1c0,9.4,7.7,17.1,17.1,17.1S67,59.4,67,50C67,40.6,59.3,32.9,49.8,32.9
      z M49.8,63.1c-7.2,0-13.1-5.9-13.1-13.1s5.9-13.1,13.1-13.1C57.1,36.9,63,42.8,63,50S57.1,63.1,49.8,63.1z"/>
    <path fill="currentColor" d="M49.8,46.6c-1.8,0-3.4,1.5-3.4,3.4s1.5,3.4,3.4,3.4s3.4-1.5,3.4-3.4S51.7,46.6,49.8,46.6z"/>
    <path fill="currentColor" d="M49.8,10.1C27.8,10.1,10,28,10,50c0,22,17.8,39.9,39.9,39.9c22,0,39.9-17.8,39.9-39.9
      C89.7,28,71.9,10.1,49.8,10.1z M49.8,85.9C30.1,85.9,14,69.8,14,50s16.1-35.9,35.9-35.9c19.8,0,35.9,16.1,35.9,35.9
      S69.6,85.9,49.8,85.9z"/>
  </symbol> -->

  <symbol id="album" viewBox="0 0 100 100">
    <path fill="currentColor" class="st0" d="M50.1,10.7C27.9,10.7,9.8,28.8,9.8,51s18.1,40.3,40.3,40.3S90.3,73.2,90.3,51S72.3,10.7,50.1,10.7z M50.1,86.9
      c-19.8,0-35.9-16.1-35.9-35.9s16.1-35.9,35.9-35.9S86,31.2,86,51S69.9,86.9,50.1,86.9z"/>
    <path fill="currentColor" class="st0" d="M50.1,32.4c-10.2,0-18.5,8.3-18.5,18.5s8.3,18.5,18.5,18.5c10.2,0,18.5-8.3,18.5-18.5S60.3,32.4,50.1,32.4z
       M50.1,65.2c-7.8,0-14.2-6.4-14.2-14.2s6.4-14.2,14.2-14.2S64.3,43.2,64.3,51S57.9,65.2,50.1,65.2z"/>
    <path fill="currentColor" class="st0" d="M50.1,47.8c-1.7,0-3.2,1.5-3.2,3.2c0,1.7,1.5,3.2,3.2,3.2c1.7,0,3.2-1.5,3.2-3.2
      C53.3,49.2,51.8,47.8,50.1,47.8z"/>
  </symbol>

  <symbol id="empty-track" viewBox="0 0 150 150">
    <rect fill="currentColor" width="150" height="150"/>
    <path fill="#797979" d="M109.7,37.3c-0.5-0.3-1.1-0.5-1.8-0.3L60,50c-0.8,0.1-1.4,1-1.4,1.9v40.3c-3-3.3-7.1-5.4-11.8-5.4
      c-8.6,0-15.6,7-15.6,15.4c0,8.6,6.8,15.4,15.4,15.4c8.4,0,15.4-7,15.4-15.4l0.1-1.6V53.3l44.3-11.9v38.7c-3-3.3-7-5.4-11.8-5.4
      c-8.6,0-15.6,7-15.6,15.4c0,8.6,6.8,15.4,15.4,15.4c8.4,0,15.4-7,15.4-15.4l0.1-1.6V38.9C110.5,38.3,110.1,37.8,109.7,37.3z
       M46.8,113.8c-6.3,0-11.4-5.1-11.4-11.4C35.4,96,40.5,91,46.8,91s11.4,5.1,11.4,11.4C58.2,108.6,53,113.8,46.8,113.8z M94.9,101.8
      c-6.3,0-11.4-5.1-11.4-11.4s5.1-11.4,11.4-11.4c6.3,0,11.4,5.1,11.4,11.4S101.1,101.8,94.9,101.8z"/>
    <path fill="#797979" d="M100.5,57.1c-0.3-1.1-1.4-1.8-2.4-1.4l-29.9,7.9c-1.1,0.3-1.8,1.4-1.4,2.4c0.1,1,1.1,1.4,1.9,1.4
      c0.1,0,0.3,0,0.5,0L99,59.5C100.1,59.2,100.8,58.1,100.5,57.1z"/>
  </symbol>

  <symbol id="track" viewBox="0 0 150 150">
    <path fill="currentColor" d="M121,20.9c-0.7-0.5-1.5-0.7-2.3-0.5l-62.9,17c-1.1,0.3-1.8,1.3-1.8,2.5v52.9c-4-4.3-9.3-7-15.4-7
      c-11.2,0-20.3,9.1-20.3,20.2c0,11.2,9,20.2,20.2,20.2c11.1,0,20.2-9.1,20.2-20.2l0.2-2.1v-62l58-15.5v50.7c-4-4.3-9.2-7-15.3-7
      c-11.2,0-20.3,9.1-20.3,20.2c0,11.2,9,20.2,20.2,20.2c11.1,0,20.2-9.1,20.2-20.2l0.2-2.1V23C122,22.1,121.6,21.4,121,20.9z
       M38.5,121c-8.3,0-15-6.7-15-15s6.7-15,15-15s15,6.7,15,15S46.7,121,38.5,121z M101.5,105.2c-8.3,0-15-6.7-15-15s6.7-15,15-15
      s15,6.7,15,15S109.8,105.2,101.5,105.2z"/>
    <path fill="currentColor" d="M108.9,46.8c-0.4-1.4-1.8-2.2-3.2-1.9L66.7,55.4c-1.4,0.4-2.2,1.8-1.9,3.2c0.3,1.2,1.4,1.9,2.5,1.9
      c0.2,0,0.5,0,0.7-0.1L107.1,50C108.5,49.6,109.3,48.2,108.9,46.8z"/>
  </symbol>

  <symbol id="settings" viewBox="0 0 100 100">
    <path fill="currentColor" d="M21,54.9c-1.1,0-2,0.9-2,2v27.6c0,1.1,0.9,2,2,2s2-0.9,2-2V56.9C23,55.8,22.1,54.9,21,54.9z"/>
    <path fill="currentColor" d="M21,29.8c1.1,0,2-0.9,2-2v-13c0-1.1-0.9-2-2-2s-2,0.9-2,2v13C19,28.9,19.9,29.8,21,29.8z"/>
    <path fill="currentColor" d="M21,33.6c-4.5,0-8.1,3.6-8.1,8.1s3.6,8.1,8.1,8.1s8.1-3.6,8.1-8.1S25.5,33.6,21,33.6z M21,45.8
      c-2.3,0-4.1-1.8-4.1-4.1s1.8-4.1,4.1-4.1s4.1,1.8,4.1,4.1S23.3,45.8,21,45.8z"/>
    <path fill="currentColor" d="M79,54.9c-1.1,0-2,0.9-2,2v27.6c0,1.1,0.9,2,2,2s2-0.9,2-2V56.9C81,55.8,80.1,54.9,79,54.9z"/>
    <path fill="currentColor" d="M79,29.8c1.1,0,2-0.9,2-2v-13c0-1.1-0.9-2-2-2s-2,0.9-2,2v13C77,28.9,77.9,29.8,79,29.8z"/>
    <path fill="currentColor" d="M79,33.6c-4.5,0-8.1,3.6-8.1,8.1s3.6,8.1,8.1,8.1s8.1-3.6,8.1-8.1S83.5,33.6,79,33.6z M79,45.8
      c-2.3,0-4.1-1.8-4.1-4.1s1.8-4.1,4.1-4.1s4.1,1.8,4.1,4.1S81.3,45.8,79,45.8z"/>
    <path fill="currentColor" d="M50,50.7c1.1,0,2-0.9,2-2V15.4c0-1.1-0.9-2-2-2s-2,0.9-2,2v33.3C48,49.8,48.9,50.7,50,50.7z"/>
    <path fill="currentColor" d="M50,74.1c-1.1,0-2,0.9-2,2v9.1c0,1.1,0.9,2,2,2s2-0.9,2-2v-9.1C52,75,51.1,74.1,50,74.1z"/>
    <path fill="currentColor" d="M50,54.5c-4.5,0-8.1,3.6-8.1,8.1c0,4.5,3.6,8.1,8.1,8.1c4.5,0,8.1-3.6,8.1-8.1C58.1,58.1,54.5,54.5,50,54.5
      z M50,66.7c-2.3,0-4.1-1.8-4.1-4.1s1.8-4.1,4.1-4.1s4.1,1.8,4.1,4.1S52.3,66.7,50,66.7z"/>
  </symbol>

  <symbol id="cog" viewBox="0 0 100 100">
    <path fill="currentColor" d="M90.3,52.3c-1.3-0.7-2.5-1.4-3.8-2c-1.2-0.7-2.4-1.3-3.6-2c-0.6-0.3-1-0.7-1.1-1.7c-0.2-1.3-0.4-2.9-1-4.6
      c-0.4-1.2-0.2-1.8,0.3-2.5c0.9-1.2,1.7-2.3,2.5-3.5c0.7-1,1.5-2,2.2-3.1c1.3-1.8,0.5-3.3-0.1-4c-0.6-0.7-1.1-1.4-1.7-2.1l-4.2-5.3
      c-0.7-0.9-2-1.3-3.1-0.9l-2.3,1c-1.9,0.8-3.8,1.6-5.6,2.4c-0.7,0.3-1.3,0.3-2-0.1c-1.4-0.7-3-1.6-4.7-2.3
      c-0.9-0.3-1.3-0.8-1.5-1.7c-0.4-1.3-0.7-2.7-1.1-4c-0.3-1.2-0.7-2.3-1-3.5c-0.7-2.7-3.2-2.4-4.6-2.2l-0.2,0
      c-2.1,0.3-4.2,0.2-6.4-0.1c-2.2-0.3-3.6,0.4-4.1,2.3c-0.4,1.5-0.8,3-1.3,4.5l-0.9,3.2c-0.2,0.7-0.5,1.1-1.2,1.4
      c-1.7,0.7-3.3,1.5-4.9,2.4c-0.5,0.3-1.3,0.5-2.1,0l-8.9-3.6l-0.7,0.2c-1.1,0.3-1.8,1.2-2.2,1.8c-0.1,0.1-0.1,0.2-0.2,0.3
      c-1.5,1.8-3,3.7-4.5,5.6L14,30.9l2.5,3.6c1.2,1.7,2.4,3.4,3.7,5.1c0.4,0.6,0.6,1.2,0.3,2.3c-0.4,1.3-0.8,2.7-1,4.5
      c-0.2,1.1-0.6,1.6-1.2,1.9c-1.5,0.8-2.9,1.6-4.4,2.4c-1,0.6-2,1.1-3,1.6c-0.9,0.5-2.2,1.6-1.3,4c1,2.5,1.6,5.2,1.8,7.9
      c0.2,2.5,1.8,3,2.8,3l3.5,0.2c1.7,0.1,3.3,0.2,5,0.2c0.7,0,1.2,0.3,1.7,1c1.1,1.5,2.2,2.9,3.3,4.1c0.5,0.6,0.7,1.1,0.6,1.8
      l-0.3,1.8c-0.4,2.2-0.8,4.4-1.2,6.6c-0.3,1.4,0.3,2.6,1.6,3.2c2.9,1.4,5.7,2.7,8.6,4.1c1.3,0.7,2.7,0.4,3.6-0.7
      c1.9-2.2,3.9-4.4,5.8-6.5c0.3-0.3,0.8-0.6,1.2-0.5c1.6,0,3.6,0.1,5.7,0c0.9,0,1.3,0.2,1.7,0.7l2.3,2.6c1.1,1.3,2.2,2.5,3.3,3.8
      c0.4,0.5,1.1,1.1,2.2,1.1c0.4,0,0.9-0.1,1.5-0.4c2.8-1.4,5.6-2.7,8.4-4c1.4-0.7,2.1-1.9,1.8-3.5c-0.3-1.8-0.6-3.5-0.9-5.3L73,74.3
      c-0.1-0.4-0.1-1,0.8-1.8c1.2-1.1,2.2-2.4,2.9-3.7c0.6-1,1.1-1.1,1.6-1.2c2.9-0.2,5.8-0.3,8.6-0.4c2.8-0.1,2.9-2.7,3-3.5
      c0.2-2.4,0.7-4.8,1.6-7.1C92.4,54.6,91.9,53.2,90.3,52.3z M85.6,63c-2.5,0.1-5,0.2-7.6,0.4c-1.5,0.1-3.6,0.7-5.1,3.3
      c-0.5,0.9-1.3,1.9-2.2,2.7c-1.8,1.7-2.5,3.6-2.1,5.7l0.6,3.2c0.3,1.5,0.5,2.9,0.8,4.4c-2.3,1.1-4.5,2.1-6.7,3.2
      c-0.9-1-1.8-2-2.7-3l-2.3-2.6c-1.3-1.5-3.1-2.2-5.1-2.1c-1.9,0.1-3.9,0-5.4,0c-1.7-0.1-3.4,0.7-4.6,2c-1.7,1.9-3.5,3.9-5.2,5.8
      c-2.2-1.1-4.5-2.2-6.7-3.2c0.3-1.9,0.7-3.7,1-5.6l0.3-1.8c0.3-2-0.2-3.8-1.6-5.4c-1-1.1-2-2.4-3-3.8c-1.3-1.7-3-2.7-5-2.8
      c-1.7-0.1-3.3-0.2-5-0.2L15.6,63c-0.3-2.5-0.8-5-1.7-7.4c0.7-0.4,1.3-0.7,2-1.1c1.4-0.8,2.9-1.6,4.3-2.3c2-1.1,3.2-2.8,3.5-5.1
      c0.2-1.6,0.5-2.7,0.8-3.7c0.8-2.3,0.5-4.4-0.9-6.3c-1.2-1.7-2.4-3.3-3.6-5L19.5,31l0,0c1.5-1.9,3-3.7,4.4-5.6
      c0-0.1,0.1-0.1,0.1-0.2l6.5,2.6c1.9,1,4.1,1,6.1-0.1c1.5-0.8,3.1-1.5,4.6-2.2c1.9-0.8,3.2-2.2,3.7-4.2l0.9-3.2
      c0.3-1.2,0.7-2.4,1-3.6c2.5,0.3,4.9,0.3,7.2,0l0.2,0c0,0,0.1,0,0.1,0c0.2,0.9,0.5,1.7,0.7,2.5c0.4,1.3,0.8,2.6,1.1,4
      c0.6,2.2,2,3.7,4.1,4.6c1.5,0.6,3,1.4,4.3,2.1c1.9,1,3.8,1.1,5.8,0.3c1.9-0.8,3.7-1.6,5.6-2.4l1.2-0.5l3.4,4.3
      c0.4,0.5,0.8,1,1.2,1.5c-0.6,0.8-1.1,1.6-1.7,2.4c-0.8,1.2-1.6,2.3-2.5,3.5c-1.4,1.9-1.7,4.1-0.9,6.5c0.5,1.3,0.7,2.7,0.8,3.7
      c0.3,2.2,1.4,3.9,3.4,4.9c1.2,0.6,2.4,1.3,3.6,1.9c0.9,0.5,1.9,1,2.8,1.5C86.4,58,85.8,60.5,85.6,63z"/>
    <path fill="currentColor" d="M50.6,39.4C50.6,39.4,50.6,39.4,50.6,39.4c-3.1,0-6.1,1.2-8.3,3.4c-2.2,2.2-3.4,5.2-3.4,8.3c0,3.1,1.2,6.1,3.5,8.3
      c2.2,2.2,5.1,3.4,8.2,3.4c0,0,0,0,0,0c6.5,0,11.7-5.3,11.7-11.8c0-3.1-1.2-6.1-3.4-8.3C56.7,40.6,53.7,39.4,50.6,39.4z M50.6,58.5
      C50.6,58.5,50.6,58.5,50.6,58.5c-2,0-3.8-0.8-5.2-2.1c-1.4-1.4-2.2-3.3-2.2-5.2c0-2,0.8-3.8,2.1-5.2c1.4-1.4,3.2-2.2,5.2-2.2
      c0,0,0,0,0,0c2,0,3.8,0.8,5.2,2.2c1.4,1.4,2.2,3.2,2.2,5.2C58,55.2,54.7,58.5,50.6,58.5z"/>
  </symbol>

  <!-- <symbol id="search" viewBox="0 0 100 100">
    <path fill="currentColor" d="M87,83.4L61.8,58.1c4.1-4.8,6.6-11,6.6-17.8C68.4,25.2,56.2,13,41.1,13S13.8,25.2,13.8,40.3
      c0,15.1,12.2,27.3,27.3,27.3c6.8,0,13-2.5,17.8-6.6l25.3,25.3c0.4,0.4,0.9,0.6,1.4,0.6s1-0.2,1.4-0.6C87.8,85.4,87.8,84.2,87,83.4z
       M17.8,40.3C17.8,27.5,28.3,17,41.1,17c12.8,0,23.3,10.5,23.3,23.3S53.9,63.6,41.1,63.6C28.3,63.6,17.8,53.1,17.8,40.3z"/>
  </symbol> -->


  <symbol id="search" viewBox="0 0 100 100">
    <path fill="currentColor" class="st0" d="M90,87.4L62.4,59.8c4.5-5.2,7.3-12,7.3-19.5c0-16.4-13.4-29.8-29.8-29.8S10.1,23.9,10.1,40.4
    	s13.4,29.8,29.8,29.8c7.4,0,14.2-2.8,19.5-7.3l27.5,27.5c0.4,0.4,1,0.6,1.5,0.6s1.1-0.2,1.5-0.6C90.8,89.6,90.8,88.2,90,87.4z
    	 M14.5,40.4c0-14,11.4-25.5,25.5-25.5s25.5,11.4,25.5,25.5c0,14-11.4,25.5-25.5,25.5S14.5,54.4,14.5,40.4z"/>
  </symbol>

  <symbol id="queue" viewBox="0 0 150 150">
    <path fill="currentColor" d="M75.6,97H31.3c-1.5,0-2.8,1.5-2.8,3s1.2,3,2.8,3h44.4c1.5,0,2.8-1.5,2.8-3S77.2,97,75.6,97z"/>
    <path fill="currentColor" d="M31.3,36h83.2c1.5,0,2.8-1,2.8-2.5S116,31,114.4,31H31.3c-1.5,0-2.8,1-2.8,2.5S29.8,36,31.3,36z"/>
    <path fill="currentColor" d="M31.3,70h83.2c1.5,0,2.8-1.5,2.8-3s-1.2-3-2.8-3H31.3c-1.5,0-2.8,1.5-2.8,3S29.8,70,31.3,70z"/>
    <path fill="currentColor" d="M127.1,103.7L96.4,86c-0.9-0.5-2.1-0.5-2.9,0c-0.9,0.5-1.5,1.4-1.5,2.4v35.5c0,1,0.7,1.9,1.5,2.4
      c0.4,0.2,1,0.4,1.5,0.4c0.5,0,1-0.1,1.4-0.4l30.7-17.7c0.9-0.5,1.4-1.4,1.4-2.4C128.5,105.1,128,104.2,127.1,103.7z M98,119V93.2
      l22.4,12.9L98,119z"/>
  </symbol>

  <!-- <symbol id="playlist" viewBox="0 0 100 100">
    <path fill="currentColor" d="M13.2,17.9h73.6c1.1,0,2-0.9,2-2s-0.9-2-2-2H13.2c-1.1,0-2,0.9-2,2S12.1,17.9,13.2,17.9z"/>
    <path fill="currentColor" d="M53.6,37.6c0-1.1-0.9-2-2-2H12.1c-1.1,0-2,0.9-2,2s0.9,2,2,2h39.5C52.7,39.6,53.6,38.7,53.6,37.6z"/>
    <path fill="currentColor" d="M34.1,57.4H11.5c-1.1,0-2,0.9-2,2s0.9,2,2,2h22.6c1.1,0,2-0.9,2-2S35.2,57.4,34.1,57.4z"/>
    <path fill="currentColor" d="M86.9,36.3h-7.6c-1.1,0-2,0.9-2,2v23.5c-2.6-2.8-6.3-4.5-10.4-4.5c-8,0-14.4,6.5-14.4,14.4
      s6.5,14.4,14.4,14.4s14.4-6.5,14.4-14.4V40.3h5.6c1.1,0,2-0.9,2-2S88,36.3,86.9,36.3z M66.9,82.1c-5.8,0-10.4-4.7-10.4-10.4
      s4.7-10.4,10.4-10.4s10.4,4.7,10.4,10.4S72.6,82.1,66.9,82.1z"/>
  </symbol> -->

  <symbol id="playlist" viewBox="0 0 100 100">
    <path fill="currentColor" class="st0" d="M86.3,13.3c-0.5-0.4-1.1-0.5-1.7-0.4L39.4,25.2c-0.8,0.2-1.3,0.9-1.3,1.8V65c-2.9-3.1-6.7-5-11.1-5
  		c-8.1,0-14.6,6.5-14.6,14.5C12.5,82.6,18.9,89,27,89c8,0,14.5-6.5,14.5-14.5l0.1-1.5V28.4l41.7-11.2v36.5c-2.9-3.1-6.6-5-11-5
  		c-8.1,0-14.6,6.5-14.6,14.5c0,8.1,6.5,14.5,14.5,14.5c8,0,14.5-6.5,14.5-14.5l0.1-1.5V14.8C87.1,14.2,86.8,13.7,86.3,13.3z
  		 M27,85.3c-6,0-10.8-4.8-10.8-10.8S21,63.7,27,63.7c6,0,10.8,4.8,10.8,10.8S32.9,85.3,27,85.3z M72.3,73.9c-6,0-10.8-4.8-10.8-10.8
  		c0-6,4.8-10.8,10.8-10.8s10.8,4.8,10.8,10.8C83.1,69.1,78.3,73.9,72.3,73.9z"/>
  	<path fill="currentColor" class="st0" d="M77.6,31.9c-0.3-1-1.3-1.6-2.3-1.4l-28.1,7.6c-1,0.3-1.6,1.3-1.4,2.3c0.2,0.9,1,1.4,1.8,1.4
  		c0.1,0,0.4,0,0.5-0.1l28.1-7.5C77.3,33.9,77.9,32.9,77.6,31.9z"/>
  </symbol>

  <symbol id="lyrics" viewBox="0 0 150 150">
    <path fill="currentColor" d="M74.2,98H28.1c-1.6,0-2.9,1.4-2.9,3s1.3,3,2.9,3h46.2c1.6,0,2.9-1.4,2.9-3S75.8,98,74.2,98z"/>
    <path fill="currentColor" d="M28.1,35h86.5c1.6,0,2.9-1.4,2.9-3c0-1.6-1.3-3-2.9-3H28.1c-1.6,0-2.9,1.4-2.9,3C25.2,33.6,26.5,35,28.1,35
      z"/>
    <path fill="currentColor" d="M28.1,70h86.5c1.6,0,2.9-1.4,2.9-3s-1.3-3-2.9-3H28.1c-1.6,0-2.9,1.4-2.9,3S26.5,70,28.1,70z"/>
    <path fill="currentColor" d="M124.8,116.4l-17.3-32.7c-1-1.9-4.1-1.9-5.1,0l-10.9,20.6l-2.4,4.5l-4,7.6c-0.7,1.4-0.2,3.2,1.2,3.9
      c1.4,0.7,3.2,0.2,3.9-1.2l4.8-9h19.6c0.1,0,0.2,0,0.3-0.1l4.8,9.1c0.5,1,1.5,1.5,2.5,1.5c0.5,0,0.9-0.1,1.4-0.3
      C125,119.5,125.6,117.8,124.8,116.4z M98.1,104l6.9-13.1l6.9,13.1H98.1z"/>
  </symbol>

  <symbol id="collection" viewBox="0 0 150 150">
    <path fill="currentColor" d="M126,27.4c0-1.3-1.1-2.4-2.4-2.4H42.4c-1.3,0-2.4,1.1-2.4,2.4v81.2c0,1.3,1.1,2.4,2.4,2.4h81.2
      c1.3,0,2.4-1.1,2.4-2.4V27.4z M121,106H45V30h76V106z"/>
    <path fill="currentColor" d="M106.4,121H30V45.9c0-1.3-1.2-2.4-2.5-2.4S25,44.6,25,45.9v78.9c0,1.3,0.9,1.2,2.2,1.2h79.5
      c1.3,0,2.1-1.3,2.1-2.6C108.8,122.1,107.7,121,106.4,121z"/>
    <path fill="currentColor" d="M79.7,87l4.4,4l4.5-4c10.3-9.4,17.2-15.6,17.2-23.9c0-7.3-5.7-13-13-13c-3.1,0-6.2,1.1-8.7,3.1
      c-2.4-2-5.5-3.1-8.7-3.1c-7.3,0-13,5.7-13,13C62.5,71.3,69.4,77.6,79.7,87z M75.5,54.8c2.6,0,5.2,1.2,6.8,3.2l1.8,2.1l1.8-2.1
      c1.7-2,4.3-3.2,6.9-3.2c4.6,0,8.2,3.6,8.2,8.2c0,6.2-6.2,11.8-15.7,20.4l-1.2,1.1l-1.2-1.1C73.5,74.9,67.3,69.2,67.3,63
      C67.3,58.4,70.9,54.8,75.5,54.8z"/>
  </symbol>

  <symbol id="profile" viewBox="0 0 150 150">
    <path fill="currentColor" d="M89.7,78.8c8.9-5.4,14.6-15.2,14.6-25.8c0-16.7-13.5-30.2-30.2-30.2C57.5,22.8,44,36.3,44,53
      c0,10.7,5.7,20.4,14.6,25.8c-19.4,7.2-34.4,27.1-34.4,47c0,1.2,1,2.1,2.2,2.1h95.5c1.2,0,2.2-0.9,2.2-2.1
      C124.2,106,109.2,86.1,89.7,78.8z M28.7,123c1.2-20,17.5-37.5,36.6-41.9c1-0.2,1.7-0.9,1.7-1.9c0.1-1-0.5-1.8-1.5-2.1
      c-10.2-3.7-17.1-13.3-17.1-24.2c0-14.2,11.5-25.7,25.7-25.7S99.9,38.8,99.9,53c0,10.8-6.9,20.6-17.1,24.2c-0.9,0.3-1.5,1.2-1.5,2.2
      c0.1,1,0.8,1.5,1.7,1.7c19.1,4.4,35.3,21.9,36.6,41.9H28.7z"/>
  </symbol>

  <!-- PLAYLIST / ADD BUTTONS -->

  <symbol id="check" viewBox="0 0 150 150">
    <path fill="currentColor" d="M124.4,47.6c-1-1-2.6-1-3.5,0L60,108.4L29.4,77.8c-1-1-2.6-1-3.5,0c-1,1-1,2.6,0,3.5l32.4,32.4
      c0.5,0.5,1.1,0.7,1.8,0.7c0.7,0,1.3-0.3,1.8-0.7l62.6-62.6C125.4,50.1,125.4,48.5,124.4,47.6z"/>
  </symbol>

  <symbol id="check-fill" viewBox="0 0 150 150">
    <path fill="currentColor" d="M75.5,25.1c-27.6,0-50,22.4-50,50c0,27.6,22.4,50,50,50s50-22.4,50-50C125.5,47.6,103.1,25.1,75.5,25.1z
       M98.9,65.8L72.8,91.4c-0.3,0.3-0.7,0.5-1.1,0.5c-0.1,0-0.1,0-0.2,0c-0.1,0-0.2,0-0.2,0c-0.4,0-0.9-0.2-1.2-0.5L55.1,76.9
      c-0.7-0.7-0.7-1.7,0-2.4c0.7-0.7,1.7-0.7,2.4,0l13.9,13.5l25-24.6c0.7-0.7,1.7-0.7,2.4,0C99.6,64,99.6,65.1,98.9,65.8z"/>
  </symbol>

  <symbol id="check-circle" viewBox="0 0 150 150">
    <path fill="currentColor" d="M75.5,25.1c-27.6,0-50,22.4-50,50c0,27.6,22.4,50,50,50s50-22.4,50-50C125.5,47.6,103.1,25.1,75.5,25.1z
       M75.5,121.2c-25.4,0-46.1-20.7-46.1-46.1C29.4,49.7,50.1,29,75.5,29s46.1,20.7,46.1,46.1C121.6,100.5,100.9,121.2,75.5,121.2z"/>
    <path fill="currentColor" d="M96.5,63.3l-25,24.6L57.5,74.4c-0.7-0.7-1.7-0.7-2.4,0c-0.7,0.7-0.7,1.7,0,2.4L70,91.4
      c0.3,0.3,0.8,0.5,1.2,0.5c0.1,0,0.1,0,0.2,0c0.1,0,0.1,0,0.2,0c0.4,0,0.9-0.2,1.1-0.5l26.1-25.6c0.7-0.7,0.7-1.7,0-2.4
      C98.2,62.6,97.2,62.6,96.5,63.3z"/>
  </symbol>

  <symbol id="add" viewBox="0 0 150 150">
    <path fill="currentColor" d="M122.9,72H78V27.1c0-1.4-1.1-2.6-2.5-2.6S73,25.7,73,27.1V72H28c-1.4,0-2.6,1.1-2.6,2.5
      c0,1.4,1.1,2.5,2.6,2.5h45v45c0,1.4,1.1,2.6,2.5,2.6c0.7,0,1.3-0.3,1.8-0.7c0.5-0.5,0.7-1.1,0.7-1.8V77h44.9c0.7,0,1.3-0.2,1.8-0.7
      c0.5-0.5,0.7-1.1,0.7-1.8C125.4,73.1,124.3,72,122.9,72z"/>
  </symbol>

  <symbol id="add-circle" viewBox="0 0 150 150">
    <path fill="currentColor" d="M75.5,25c-27.6,0-50,22.4-50,50s22.4,50,50,50s50-22.4,50-50C125.5,47.5,103.1,25,75.5,25z M75.5,121.2
      c-25.4,0-46.1-20.7-46.1-46.1S50.1,29,75.5,29s46.1,20.7,46.1,46.1S100.9,121.2,75.5,121.2z"/>
    <path fill="currentColor" d="M93.4,74h-16V58c0-1.1-0.9-2.1-2-2.1s-2,0.9-2,2.1v16H57.2c-1.1,0-2.1,0.9-2.1,2c0,1.1,0.9,2,2.1,2h16.1
      v16.1c0,1.1,0.9,2.1,2,2.1c0.5,0,0.9-0.2,1.3-0.5l0.1-0.1c0.3-0.3,0.6-0.7,0.6-1.4V78.1h16c0.7,0,1.2-0.3,1.4-0.6s0.6-0.7,0.6-1.4
      C95.4,74.9,94.5,74,93.4,74z"/>
  </symbol>

  <symbol id="add-fill" viewBox="0 0 100 100">
    <path fill="currentColor" d="M50.3,16.7C31.9,16.7,17,31.6,17,50s14.9,33.3,33.3,33.3c18.4,0,33.3-14.9,33.3-33.3
      C83.7,31.7,68.7,16.7,50.3,16.7z M63.1,51.7c-0.1,0.2-0.5,0.4-0.9,0.4H51.5v10.7c0,0.5-0.2,0.7-0.4,0.9l-0.1,0.1
      c-0.3,0.2-0.5,0.3-0.9,0.3c-0.7,0-1.3-0.7-1.3-1.4V52H38.1c-0.8,0-1.4-0.6-1.4-1.3s0.7-1.3,1.4-1.3h10.8V38.7c0-0.8,0.6-1.4,1.3-1.4
      s1.3,0.7,1.3,1.4v10.7h10.7c0.7,0,1.3,0.6,1.3,1.4C63.5,51.2,63.3,51.5,63.1,51.7z"/>
  </symbol>

  <symbol id="addtolist" viewBox="0 0 150 150">
    <path fill="currentColor" d="M127,102h-15V87c0-1.4-1.1-2.5-2.5-2.5S107,85.6,107,87v15H92c-1.4,0-2.5,1.1-2.5,2.5s1.1,2.5,2.5,2.5h15
      v15c0,1.4,1.1,2.5,2.5,2.5s2.5-1.1,2.5-2.5v-15h15c1.4,0,2.5-1.1,2.5-2.5S128.4,102,127,102z"/>
    <path fill="currentColor" d="M72,97H32c-1.4,0-2.5,1.1-2.5,2.5s1.1,2.5,2.5,2.5h40c1.4,0,2.5-1.1,2.5-2.5S73.4,97,72,97z"/>
    <path fill="currentColor" d="M32,42h75c1.4,0,2.5-1.1,2.5-2.5S108.4,37,107,37H32c-1.4,0-2.5,1.1-2.5,2.5S30.6,42,32,42z"/>
    <path fill="currentColor" d="M32,72h75c1.4,0,2.5-1.1,2.5-2.5S108.4,67,107,67H32c-1.4,0-2.5,1.1-2.5,2.5S30.6,72,32,72z"/>
  </symbol>

  <symbol id="addtocollection" viewBox="0 0 150 150">
    <path fill="currentColor" d="M67.4,70H82v14.5c0,1.3,0.7,2.4,2,2.4s2-1.1,2-2.4V70h14.6c1.3,0,2.4-0.7,2.4-2s-1.1-2-2.4-2H86V51.3
      c0-1.3-0.7-2.4-2-2.4s-2,1.1-2,2.4V66H67.4c-1.3,0-2.4,0.7-2.4,2S66.1,70,67.4,70z"/>
    <path fill="currentColor" d="M106.4,120H30V44.9c0-1.3-1.2-2.4-2.5-2.4S25,43.6,25,44.9v78.9c0,1.3,0.9,1.2,2.2,1.2h79.5
      c1.3,0,2.1-1.3,2.1-2.6C108.8,121.1,107.7,120,106.4,120z"/>
    <path fill="currentColor" d="M126,27.4c0-1.3-1.1-2.4-2.4-2.4H42.4c-1.3,0-2.4,1.1-2.4,2.4v81.2c0,1.3,1.1,2.4,2.4,2.4h81.2
      c1.3,0,2.4-1.1,2.4-2.4V27.4z M121,106H45V30h76V106z"/>
  </symbol>

  <!-- ARROWS -->

  <symbol id="arrow-up" viewBox="0 0 100 100">
    <path fill="currentColor" d="M98.4,69.7l-45-45c-0.8-0.8-1.9-1.4-3.3-1.4c-1.2,0-2.3,0.4-3.3,1.4L1.4,70.1c-1.9,1.9-1.9,4.8,0,6.8
      c1.9,1.9,4.8,1.9,6.8,0l42.1-42.1l41.5,41.7c1.9,1.9,4.8,1.9,6.8,0C100.5,74.6,100.5,71.5,98.4,69.7z"/>
  </symbol>

  <symbol id="arrow-down" viewBox="0 0 100 100">
    <path fill="currentColor" d="M98.6,25.2c-1.9-1.9-4.8-1.9-6.8,0L50.3,66.9L8.2,24.8c-1.9-1.9-4.8-1.9-6.8,0s-1.9,4.8,0,6.8L46.8,77
      c1,1,2.1,1.4,3.3,1.4c1.4,0,2.5-0.6,3.3-1.4l45-45C100.5,30.2,100.5,27.2,98.6,25.2z"/>
  </symbol>

  <symbol id="arrow-left" viewBox="0 0 100 100">
    <path fill="currentColor" d="M75.6,98.4c1.9-1.9,1.9-4.8,0-6.8L33.9,50.2L76,8.1c1.9-1.9,1.9-4.8,0-6.8c-1.9-1.9-4.8-1.9-6.8,0L23.9,46.7
      c-1,1-1.4,2.1-1.4,3.3c0,1.4,0.6,2.5,1.4,3.3l45,45C70.6,100.4,73.7,100.4,75.6,98.4z"/>
  </symbol>

  <symbol id="arrow-right" viewBox="0 0 100 100">
    <path fill="currentColor" d="M31.1,98.2l45-45c0.8-0.8,1.4-1.9,1.4-3.3c0-1.2-0.4-2.3-1.4-3.3L30.7,1.3c-1.9-1.9-4.8-1.9-6.8,0
      S22,6.1,24,8.1l42.1,42.1L24.4,91.7c-1.9,1.9-1.9,4.8,0,6.8S29.4,100.4,31.1,98.2z"/>
  </symbol>

  <symbol id="right-button-box" viewBox="0 0 150 150">
    <path fill="currentColor" d="M125,26.7c0-0.9-0.7-1.7-1.7-1.7H26.7c-0.9,0-1.7,0.7-1.7,1.7v96.7c0,0.9,0.7,1.7,1.7,1.7h96.7
      c0.9,0,1.7-0.7,1.7-1.7V26.7z M28,28h94v94H28V28z"/>
    <path fill="currentColor" d="M69.3,57.8c-0.3-0.3-0.8-0.5-1.2-0.5c-0.4,0-0.9,0.2-1.2,0.5c-0.7,0.7-0.7,1.7,0,2.4l14.7,14.7L66.8,89.6
      c-0.7,0.7-0.7,1.7,0,2.4c0.7,0.7,1.7,0.7,2.4,0l16-16c0.3-0.3,0.5-0.7,0.5-1.2c0-0.4-0.2-0.9-0.5-1.2L69.3,57.8z"/>
  </symbol>

  <symbol id="right-arrow" viewBox="0 0 150 150">
    <path fill="currentColor" d="M27.2,78H117l-28.4,28.1c-0.9,0.9-0.9,2.3,0,3.2c0.9,0.9,2.4,0.9,3.3-0.1L124.2,77c0.4-0.4,0.7-1.1,0.7-1.7
      c0-0.6-0.2-1.2-0.7-1.7l-32-32c-0.5-0.5-1.1-0.7-1.7-0.7s-1.2,0.2-1.7,0.7c-0.9,0.9-0.9,2.5,0,3.4l27.9,28H27.2
      c-1.3,0-2.4,1.2-2.4,2.5S25.9,78,27.2,78z"/>
  </symbol>

  <symbol id="back-arrow" viewBox="0 0 150 150">
    <path fill="currentColor" d="M79,52H42.6l23.7-23.4c0.9-0.9,0.9-2.1,0-2.9c-0.9-0.9-2.2-0.8-3.1,0.1l-27,27c-0.4,0.4-0.6,1-0.6,1.6
      c0,0.6,0.2,1.1,0.6,1.6l26.7,26.7c0.4,0.4,1,0.6,1.5,0.6s1.1-0.2,1.5-0.6c0.9-0.9,0.9-2.2,0-3.1L43.5,57H79
      c16.7,0,30.4,14.3,30.4,31.9c0,17.3-14.6,31.9-32,31.9c-1.2,0-2.2,1-2.2,2.2s1,2.2,2.2,2.2c19.7,0,36.3-16.9,36.3-36.6
      C113.7,68.6,98.1,52,79,52z"/>
  </symbol>

  <symbol id="left-button-box" viewBox="0 0 150 150">
    <path fill="currentColor" d="M125,26.7c0-0.9-0.7-1.7-1.7-1.7H26.7c-0.9,0-1.7,0.7-1.7,1.7v96.7c0,0.9,0.7,1.7,1.7,1.7h96.7
      c0.9,0,1.7-0.7,1.7-1.7V26.7z M122,122H28V28h94V122z"/>
    <path fill="currentColor" d="M80.7,57.8c0.3-0.3,0.8-0.5,1.2-0.5c0.4,0,0.9,0.2,1.2,0.5c0.7,0.7,0.7,1.7,0,2.4L68.3,74.8l14.8,14.8
      c0.7,0.7,0.7,1.7,0,2.4c-0.7,0.7-1.7,0.7-2.4,0l-16-16c-0.3-0.3-0.5-0.7-0.5-1.2c0-0.4,0.2-0.9,0.5-1.2L80.7,57.8z"/>
  </symbol>

  <symbol id="left-arrow" viewBox="0 0 150 150">
    <path fill="currentColor" d="M122.5,73H32.8l28.4-28.2c0.9-0.9,0.9-2.3,0-3.2c-0.9-0.9-2.4-0.9-3.3,0L25.6,73.9c-0.4,0.4-0.7,1.1-0.7,1.7
      c0,0.6,0.2,1.2,0.7,1.7l32,32c0.5,0.5,1.1,0.7,1.7,0.7c0.6,0,1.2-0.2,1.7-0.7c0.9-0.9,0.9-2.4,0-3.4L33.1,78h89.5
      c1.3,0,2.4-1.2,2.4-2.5S123.8,73,122.5,73z"/>
  </symbol>

  <symbol id="dropdown" viewBox="0 0 150 150">
    <path fill="currentColor" d="M100.4,61.2c-1-1-2.5-1-3.5,0L75.4,82.8L53.6,61c-1-1-2.5-1-3.5,0c-1,1-1,2.5,0,3.5L73.6,88
      c0.5,0.5,1.1,0.7,1.7,0.7c0.7,0,1.3-0.3,1.7-0.7l23.3-23.3C101.4,63.8,101.4,62.2,100.4,61.2z"/>
  </symbol>

  <!-- OTHER -->

  <symbol id="share" viewBox="0 0 150 150">
    <path fill="currentColor" d="M98.3,101.2c-3.1,0-5.9,1.2-8,3.2l-28-23.2c0.8-1.6,1.3-3.4,1.3-5.4c0-2.4-0.7-4.6-1.9-6.4l28.6-23.7
      c2.1,2,4.9,3.2,8,3.2c6.6,0,11.9-5.3,11.9-11.9S104.9,25,98.3,25s-11.9,5.3-11.9,11.9c0,1.8,0.4,3.4,1.1,5L58.4,66
      c-1.9-1.3-4.2-2.1-6.8-2.1c-6.6,0-11.9,5.3-11.9,11.9c0,6.6,5.3,11.9,11.9,11.9c2.9,0,5.6-1.1,7.7-2.9l28.1,23.3
      c-0.7,1.5-1.1,3.2-1.1,5c0,6.6,5.3,11.9,11.9,11.9s11.9-5.3,11.9-11.9C110.2,106.5,104.9,101.2,98.3,101.2z M98.3,29.7
      c4,0,7.2,3.3,7.2,7.2s-3.3,7.2-7.2,7.2c-4,0-7.2-3.3-7.2-7.2S94.3,29.7,98.3,29.7z M51.7,83c-4,0-7.2-3.3-7.2-7.2
      c0-4,3.3-7.2,7.2-7.2c4,0,7.2,3.3,7.2,7.2C58.9,79.8,55.7,83,51.7,83z M98.3,120.3c-4,0-7.2-3.3-7.2-7.2c0-4,3.3-7.2,7.2-7.2
      c4,0,7.2,3.3,7.2,7.2C105.6,117.1,102.3,120.3,98.3,120.3z"/>
  </symbol>

  <symbol id="camera-small" viewBox="0 0 30 30">
    <path fill="currentColor" d="M26.3,5.6h-2.8l-0.2-1.1c-0.3-1.4-1.6-2.4-3-2.4H9.8c-1.4,0-2.7,1-3,2.4L6.5,5.6H3.7C1.6,5.6,0,7.3,0,9.3v14.5
    c0,2,1.6,3.7,3.7,3.7h22.7c2,0,3.7-1.6,3.7-3.7V9.3C30,7.3,28.4,5.6,26.3,5.6z M9.8,3.5h10.5c0.7,0,1.6,0.6,1.8,1.3l0.4,1.6
    C22.5,6.8,22.7,7,23,7h3.3c1.3,0,2.3,1,2.3,2.3v14.5c0,1.3-1,2.3-2.3,2.3H3.7c-1.3,0-2.3-1-2.3-2.3V9.3C1.4,8,2.4,7,3.7,7h3.4
    c0.3,0,0.5-0.2,0.6-0.5l0.3-1.6C8.2,4.2,9.1,3.5,9.8,3.5z"/>
    <path fill="currentColor" d="M15,22.6c3.5,0,6.4-2.9,6.4-6.4S18.6,9.8,15,9.8s-6.4,2.9-6.4,6.4S11.5,22.6,15,22.6z M15,11.2c2.8,0,5.1,2.3,5.1,5.1
      s-2.3,5.1-5.1,5.1c-2.8,0-5.1-2.3-5.1-5.1S12.2,11.2,15,11.2z"/>
  </symbol>

  <symbol id="camera-large" viewBox="0 0 100 100">
    <path fill="currentColor" d="M41,28.8c-2.2,0-4.2,1.6-4.7,3.7l-0.5,2.2h-5.3c-3.2,0-5.8,2.6-5.8,5.8v24.9c0,3.2,2.6,5.8,5.8,5.8h38.9
      c3.2,0,5.8-2.6,5.8-5.8V40.5c0-3.2-2.6-5.8-5.8-5.8h-5.2l-0.5-2.2c-0.5-2.1-2.5-3.7-4.7-3.7h-8.8L41,28.8L41,28.8z M41,30.1h9.1H59
      c1.5,0,3.1,1.3,3.5,2.7v0l0.6,2.7c0.1,0.3,0.3,0.5,0.6,0.5h5.7c2.5,0,4.5,2,4.5,4.5v24.9c0,2.5-2,4.5-4.5,4.5H30.6
      c-2.5,0-4.5-2-4.5-4.5V40.5c0-2.5,2-4.5,4.5-4.5h5.8c0.3,0,0.5-0.2,0.6-0.5l0.6-2.7v0C37.9,31.4,39.6,30.1,41,30.1L41,30.1z
       M50,41.9c-5.8,0-10.5,4.7-10.5,10.5c0,5.8,4.7,10.5,10.5,10.5s10.5-4.7,10.5-10.5C60.5,46.6,55.8,41.9,50,41.9L50,41.9z M50,43.2
      c5.1,0,9.2,4.1,9.2,9.2s-4.1,9.2-9.2,9.2c-5.1,0-9.3-4.1-9.3-9.2C40.7,47.3,44.9,43.2,50,43.2L50,43.2z"/>
  </symbol>

  <!-- RECORD -->

  <symbol id="record-center" viewBox="0 0 500 500">
    <rect y="-0.3" fill="#9FABB3" width="500" height="500"/>
    <path fill="none" d="M251.7,247.8c0-1.5,0.5-3,1-5c-3.5,3.5-6,8-6,11.5c0,2,1,2,2,2c1.5,0,3.5-1,5.5-2.5
      C252.2,252.9,251.7,250.9,251.7,247.8z"/>
    <path fill="none" d="M257.2,241.3c0-1.5-1-1.5-1.5-1.5c-4,0-13,8.5-13,15.5c0,2.5,1,4.5,2,5C250.7,255.4,257.2,246.3,257.2,241.3z"
      />
    <path fill="none" d="M258.7,245.3c2-2,2.5-4,2.5-5c0-1-0.5-1.5-2-1.5c-7,0-20.5,13.5-20.5,20.5c0,1.5,0.5,2,1.5,2c3.5,0,8-4,15-12
      L258.7,245.3z"/>
    <path fill="currentColor" d="M346.7,249.9c0,53.5-43.5,96.6-96.6,96.6s-96.6-43.5-96.6-96.6s43-96.6,96.6-96.6S346.7,196.8,346.7,249.9z
       M250.2,243.8c-3.5,0-6,2.5-6,6s2.5,6,6,6s6-2.5,6-6C256.2,246.8,253.7,243.8,250.2,243.8z"/>
  </symbol>

  <!-- CIRCLE -->

  <symbol id="circle" viewBox="0 0 100 100">
    <circle fill="currentColor" cx="50" cy="50" r="50"/>
  </symbol>

  <!-- INTRO -->

  <symbol id="eye-open" viewBox="0 0 100 100">
    <path fill="currentColor" d="M758.5,189.1c-6,0-10.9,4.9-10.9,10.9s4.9,10.9,10.9,10.9c6,0,10.9-4.9,10.9-10.9
      C769.4,194,764.5,189.1,758.5,189.1z"/>
    <path fill="currentColor" d="M792.5,180.1c-0.9-0.6-2.2-0.4-2.8,0.5l-6.2,8.9c-2.6-2.3-5.4-4.2-8.5-5.7l4.1-11c0.4-1-0.1-2.2-1.2-2.6
      s-2.2,0.1-2.6,1.2l-4,10.8c-3.6-1.3-7.5-2.1-11.5-2.2v-11c0-1.1-0.9-2-2-2s-2,0.9-2,2v11c-3.9,0.3-7.7,1.2-11.3,2.6l-3.9-10.4
      c-0.4-1-1.5-1.6-2.6-1.2s-1.6,1.5-1.2,2.6l4,10.7c-3,1.6-5.7,3.5-8.2,5.8l-6.1-8.5c-0.6-0.9-1.9-1.1-2.8-0.4
      c-0.9,0.6-1.1,1.9-0.4,2.8l6.6,9.1c-1.5,1.7-2.8,3.6-4,5.6c-0.2,0.3-0.2,0.6-0.3,0.9c-0.1,0.4,0,0.9,0.2,1.3
      c6.7,11.6,19.2,18.8,32.6,18.8s25.9-7.2,32.6-18.8c0.2-0.3,0.2-0.6,0.3-0.9c0.1-0.4,0-0.9-0.2-1.3c-1.4-2.4-3-4.5-4.8-6.5l6.6-9.4
      C793.6,182,793.4,180.7,792.5,180.1z M758.5,215.8c-11.6,0-22.5-6.1-28.6-15.9c6.1-9.9,17-16,28.6-16c11.6,0,22.5,6.1,28.6,15.9
      C781,209.7,770.1,215.8,758.5,215.8z"/>
    <path fill="currentColor" d="M758.5,189.1c-6,0-10.9,4.9-10.9,10.9s4.9,10.9,10.9,10.9c6,0,10.9-4.9,10.9-10.9
      C769.4,194,764.5,189.1,758.5,189.1z"/>
    <path fill="currentColor" d="M792.5,180.1c-0.9-0.6-2.2-0.4-2.8,0.5l-6.2,8.9c-2.6-2.3-5.4-4.2-8.5-5.7l4.1-11c0.4-1-0.1-2.2-1.2-2.6
      s-2.2,0.1-2.6,1.2l-4,10.8c-3.6-1.3-7.5-2.1-11.5-2.2v-11c0-1.1-0.9-2-2-2s-2,0.9-2,2v11c-3.9,0.3-7.7,1.2-11.3,2.6l-3.9-10.4
      c-0.4-1-1.5-1.6-2.6-1.2s-1.6,1.5-1.2,2.6l4,10.7c-3,1.6-5.7,3.5-8.2,5.8l-6.1-8.5c-0.6-0.9-1.9-1.1-2.8-0.4
      c-0.9,0.6-1.1,1.9-0.4,2.8l6.6,9.1c-1.5,1.7-2.8,3.6-4,5.6c-0.2,0.3-0.2,0.6-0.3,0.9c-0.1,0.4,0,0.9,0.2,1.3
      c6.7,11.6,19.2,18.8,32.6,18.8s25.9-7.2,32.6-18.8c0.2-0.3,0.2-0.6,0.3-0.9c0.1-0.4,0-0.9-0.2-1.3c-1.4-2.4-3-4.5-4.8-6.5l6.6-9.4
      C793.6,182,793.4,180.7,792.5,180.1z M758.5,215.8c-11.6,0-22.5-6.1-28.6-15.9c6.1-9.9,17-16,28.6-16c11.6,0,22.5,6.1,28.6,15.9
      C781,209.7,770.1,215.8,758.5,215.8z"/>
    <path fill="currentColor" d="M758.5,189.1c-6,0-10.9,4.9-10.9,10.9s4.9,10.9,10.9,10.9c6,0,10.9-4.9,10.9-10.9
      C769.4,194,764.5,189.1,758.5,189.1z"/>
    <path fill="currentColor" d="M792.5,180.1c-0.9-0.6-2.2-0.4-2.8,0.5l-6.2,8.9c-2.6-2.3-5.4-4.2-8.5-5.7l4.1-11c0.4-1-0.1-2.2-1.2-2.6
      s-2.2,0.1-2.6,1.2l-4,10.8c-3.6-1.3-7.5-2.1-11.5-2.2v-11c0-1.1-0.9-2-2-2s-2,0.9-2,2v11c-3.9,0.3-7.7,1.2-11.3,2.6l-3.9-10.4
      c-0.4-1-1.5-1.6-2.6-1.2s-1.6,1.5-1.2,2.6l4,10.7c-3,1.6-5.7,3.5-8.2,5.8l-6.1-8.5c-0.6-0.9-1.9-1.1-2.8-0.4
      c-0.9,0.6-1.1,1.9-0.4,2.8l6.6,9.1c-1.5,1.7-2.8,3.6-4,5.6c-0.2,0.3-0.2,0.6-0.3,0.9c-0.1,0.4,0,0.9,0.2,1.3
      c6.7,11.6,19.2,18.8,32.6,18.8s25.9-7.2,32.6-18.8c0.2-0.3,0.2-0.6,0.3-0.9c0.1-0.4,0-0.9-0.2-1.3c-1.4-2.4-3-4.5-4.8-6.5l6.6-9.4
      C793.6,182,793.4,180.7,792.5,180.1z M758.5,215.8c-11.6,0-22.5-6.1-28.6-15.9c6.1-9.9,17-16,28.6-16c11.6,0,22.5,6.1,28.6,15.9
      C781,209.7,770.1,215.8,758.5,215.8z"/>
    <path fill="currentColor" d="M50.3,39.2c-6,0-10.9,4.9-10.9,10.9S44.3,61,50.3,61c6,0,10.9-4.9,10.9-10.9C61.3,44.1,56.4,39.2,50.3,39.2
      z"/>
    <path fill="currentColor" d="M84.4,30.2c-0.9-0.6-2.2-0.4-2.8,0.5l-6.2,8.9c-2.6-2.3-5.4-4.2-8.5-5.7l4.1-11c0.4-1-0.1-2.2-1.2-2.6
      s-2.2,0.1-2.6,1.2l-4,10.8c-3.6-1.3-7.5-2.1-11.5-2.2v-11c0-1.1-0.9-2-2-2s-2,0.9-2,2v11c-3.9,0.3-7.7,1.2-11.3,2.6l-3.9-10.4
      c-0.4-1-1.5-1.6-2.6-1.2s-1.6,1.5-1.2,2.6l4,10.7c-3,1.6-5.7,3.5-8.2,5.8l-6.1-8.5c-0.6-0.9-1.9-1.1-2.8-0.4
      c-0.9,0.6-1.1,1.9-0.4,2.8l6.6,9.1c-1.5,1.7-2.8,3.6-4,5.6c-0.2,0.3-0.2,0.6-0.3,0.9c-0.1,0.4,0,0.9,0.2,1.3
      c6.7,11.6,19.2,18.8,32.6,18.8s25.9-7.2,32.6-18.8c0.2-0.3,0.2-0.6,0.3-0.9c0.1-0.4,0-0.9-0.2-1.3c-1.4-2.4-3-4.5-4.8-6.5l6.6-9.4
      C85.5,32.1,85.3,30.8,84.4,30.2z M50.3,65.9c-11.6,0-22.5-6.1-28.6-15.9c6.1-9.9,17-16,28.6-16C62,34,72.8,40.1,78.9,50
      C72.8,59.8,62,65.9,50.3,65.9z"/>
  </symbol>

  <symbol id="eye-closed" viewBox="0 0 100 100">
    <path fill="currentColor" d="M84.8,67l-6.6-9.4c1.8-2,3.4-4.1,4.8-6.5c0.6-1,0.2-2.2-0.7-2.7c-1-0.6-2.2-0.2-2.7,0.7
      C73.5,59.5,62.3,66,50.4,66s-23.1-6.5-29.1-16.8c-0.6-1-1.8-1.3-2.7-0.7c-1,0.6-1.3,1.8-0.7,2.7c1.2,2,2.5,3.9,4,5.6l-6.6,9.1
      c-0.6,0.9-0.4,2.1,0.4,2.8c0.4,0.3,0.8,0.4,1.2,0.4c0.6,0,1.2-0.3,1.6-0.8l6.1-8.5c2.5,2.3,5.2,4.3,8.2,5.8l-4,10.7
      c-0.4,1,0.1,2.2,1.2,2.6c0.2,0.1,0.5,0.1,0.7,0.1c0.8,0,1.6-0.5,1.9-1.3l3.9-10.4c3.6,1.4,7.4,2.3,11.3,2.6v11c0,1.1,0.9,2,2,2
      s2-0.9,2-2v-11c4-0.1,7.8-0.9,11.5-2.2l4,10.8c0.3,0.8,1.1,1.3,1.9,1.3c0.2,0,0.5,0,0.7-0.1c1-0.4,1.6-1.5,1.2-2.6l-4.1-11
      c3.1-1.5,6-3.4,8.5-5.7l6.2,8.9c0.4,0.6,1,0.8,1.6,0.8c0.4,0,0.8-0.1,1.2-0.4C85.3,69.2,85.5,67.9,84.8,67z"/>
    <path fill="currentColor" d="M758.5,189.1c-6,0-10.9,4.9-10.9,10.9s4.9,10.9,10.9,10.9c6,0,10.9-4.9,10.9-10.9
      C769.4,194,764.5,189.1,758.5,189.1z"/>
    <path fill="currentColor" d="M792.5,180.1c-0.9-0.6-2.2-0.4-2.8,0.5l-6.2,8.9c-2.6-2.3-5.4-4.2-8.5-5.7l4.1-11c0.4-1-0.1-2.2-1.2-2.6
      s-2.2,0.1-2.6,1.2l-4,10.8c-3.6-1.3-7.5-2.1-11.5-2.2v-11c0-1.1-0.9-2-2-2s-2,0.9-2,2v11c-3.9,0.3-7.7,1.2-11.3,2.6l-3.9-10.4
      c-0.4-1-1.5-1.6-2.6-1.2s-1.6,1.5-1.2,2.6l4,10.7c-3,1.6-5.7,3.5-8.2,5.8l-6.1-8.5c-0.6-0.9-1.9-1.1-2.8-0.4
      c-0.9,0.6-1.1,1.9-0.4,2.8l6.6,9.1c-1.5,1.7-2.8,3.6-4,5.6c-0.2,0.3-0.2,0.6-0.3,0.9c-0.1,0.4,0,0.9,0.2,1.3
      c6.7,11.6,19.2,18.8,32.6,18.8s25.9-7.2,32.6-18.8c0.2-0.3,0.2-0.6,0.3-0.9c0.1-0.4,0-0.9-0.2-1.3c-1.4-2.4-3-4.5-4.8-6.5l6.6-9.4
      C793.6,182,793.4,180.7,792.5,180.1z M758.5,215.8c-11.6,0-22.5-6.1-28.6-15.9c6.1-9.9,17-16,28.6-16c11.6,0,22.5,6.1,28.6,15.9
      C781,209.7,770.1,215.8,758.5,215.8z"/>
    <path fill="currentColor" d="M758.5,189.1c-6,0-10.9,4.9-10.9,10.9s4.9,10.9,10.9,10.9c6,0,10.9-4.9,10.9-10.9
      C769.4,194,764.5,189.1,758.5,189.1z"/>
    <path fill="currentColor" d="M792.5,180.1c-0.9-0.6-2.2-0.4-2.8,0.5l-6.2,8.9c-2.6-2.3-5.4-4.2-8.5-5.7l4.1-11c0.4-1-0.1-2.2-1.2-2.6
      s-2.2,0.1-2.6,1.2l-4,10.8c-3.6-1.3-7.5-2.1-11.5-2.2v-11c0-1.1-0.9-2-2-2s-2,0.9-2,2v11c-3.9,0.3-7.7,1.2-11.3,2.6l-3.9-10.4
      c-0.4-1-1.5-1.6-2.6-1.2s-1.6,1.5-1.2,2.6l4,10.7c-3,1.6-5.7,3.5-8.2,5.8l-6.1-8.5c-0.6-0.9-1.9-1.1-2.8-0.4
      c-0.9,0.6-1.1,1.9-0.4,2.8l6.6,9.1c-1.5,1.7-2.8,3.6-4,5.6c-0.2,0.3-0.2,0.6-0.3,0.9c-0.1,0.4,0,0.9,0.2,1.3
      c6.7,11.6,19.2,18.8,32.6,18.8s25.9-7.2,32.6-18.8c0.2-0.3,0.2-0.6,0.3-0.9c0.1-0.4,0-0.9-0.2-1.3c-1.4-2.4-3-4.5-4.8-6.5l6.6-9.4
      C793.6,182,793.4,180.7,792.5,180.1z M758.5,215.8c-11.6,0-22.5-6.1-28.6-15.9c6.1-9.9,17-16,28.6-16c11.6,0,22.5,6.1,28.6,15.9
      C781,209.7,770.1,215.8,758.5,215.8z"/>
    <path fill="currentColor" d="M758.5,189.1c-6,0-10.9,4.9-10.9,10.9s4.9,10.9,10.9,10.9c6,0,10.9-4.9,10.9-10.9
      C769.4,194,764.5,189.1,758.5,189.1z"/>
    <path fill="currentColor" d="M792.5,180.1c-0.9-0.6-2.2-0.4-2.8,0.5l-6.2,8.9c-2.6-2.3-5.4-4.2-8.5-5.7l4.1-11c0.4-1-0.1-2.2-1.2-2.6
      s-2.2,0.1-2.6,1.2l-4,10.8c-3.6-1.3-7.5-2.1-11.5-2.2v-11c0-1.1-0.9-2-2-2s-2,0.9-2,2v11c-3.9,0.3-7.7,1.2-11.3,2.6l-3.9-10.4
      c-0.4-1-1.5-1.6-2.6-1.2s-1.6,1.5-1.2,2.6l4,10.7c-3,1.6-5.7,3.5-8.2,5.8l-6.1-8.5c-0.6-0.9-1.9-1.1-2.8-0.4
      c-0.9,0.6-1.1,1.9-0.4,2.8l6.6,9.1c-1.5,1.7-2.8,3.6-4,5.6c-0.2,0.3-0.2,0.6-0.3,0.9c-0.1,0.4,0,0.9,0.2,1.3
      c6.7,11.6,19.2,18.8,32.6,18.8s25.9-7.2,32.6-18.8c0.2-0.3,0.2-0.6,0.3-0.9c0.1-0.4,0-0.9-0.2-1.3c-1.4-2.4-3-4.5-4.8-6.5l6.6-9.4
      C793.6,182,793.4,180.7,792.5,180.1z M758.5,215.8c-11.6,0-22.5-6.1-28.6-15.9c6.1-9.9,17-16,28.6-16c11.6,0,22.5,6.1,28.6,15.9
      C781,209.7,770.1,215.8,758.5,215.8z"/>
  </symbol>

  <symbol id="directory" viewBox="0 0 200 200">
    <path fill="currentColor" d="M169.1,169.2l-8.4,0l-106.3,0l-30.2,0c-9,0-16.2-5.5-18.2-14.1c-0.3-1.3-0.5-2.8-0.5-4.5
      c0-35.4,0-70.8,0-106.1c0-10.4,7.7-18.3,18-18.4c10.9-0.1,20.6-0.1,31,0l8.1,0c1.1,0,2.2,0.6,2.7,1c4,2.8,6.3,5.5,8.6,8.2
      c2.2,2.6,4.3,5.1,8,7.7c0.5,0.3,1.2,0.6,1.8,0.6c10,0,23.3,0,37.2,0c19.5,0,40,0,54.1,0.1c2.9,0,5.7,0.4,8,1.2
      c7.1,2.4,11.4,8.5,11.4,16.3v9.4c0,26.8,0,53.6,0,80.4c0,1.6-0.2,3.1-0.5,4.6c-1.8,7.9-8.7,13.5-16.8,13.7
      C174.4,169.1,171.8,169.2,169.1,169.2z M160.9,165.9l8.2,0c2.6,0,5.3,0,7.9-0.1c6.6-0.2,12.2-4.8,13.7-11.2
      c0.3-1.3,0.5-2.6,0.5-3.9c0-26.8,0-53.6,0-80.4V61c0-6.4-3.4-11.2-9.2-13.2c-2-0.7-4.4-1.1-7-1.1c-14,0-34.6-0.1-54-0.1
      c-13.9,0-27.2,0-37.2,0c-1.2,0-2.6-0.4-3.6-1.1c-4-2.8-6.4-5.5-8.7-8.2c-2.2-2.6-4.3-5.1-8-7.6c-0.4-0.3-0.8-0.4-0.9-0.4l-8.1,0
      c-10.4,0-20-0.1-30.9,0C15,29.3,8.8,35.7,8.8,44.4c0,35.4,0,70.8,0,106.1c0,1.5,0.1,2.7,0.4,3.8c1.7,7.2,7.5,11.6,15.1,11.6
      l50.3,0L160.9,165.9z"/>
    <path fill="currentColor" d="M124.8,79.2c-0.4-0.3-0.8-0.4-1.2-0.3l-33.3,9c-0.6,0.2-1,0.7-1,1.3v28c-2.1-2.3-4.9-3.7-8.1-3.7
      c-5.9,0-10.7,4.8-10.7,10.7c0,5.9,4.8,10.7,10.7,10.7c5.9,0,10.7-4.8,10.7-10.7l0.1-1.1V90.3l30.7-8.2v26.8
      c-2.1-2.3-4.9-3.7-8.1-3.7c-5.9,0-10.7,4.8-10.7,10.7c0,5.9,4.8,10.7,10.7,10.7c5.9,0,10.7-4.8,10.7-10.7l0.1-1.1V80.3
      C125.3,79.8,125.1,79.4,124.8,79.2z M81.1,132.1c-4.4,0-7.9-3.5-7.9-7.9c0-4.4,3.5-7.9,7.9-7.9s7.9,3.5,7.9,7.9
      C89.1,128.6,85.5,132.1,81.1,132.1z M114.5,123.8c-4.4,0-7.9-3.5-7.9-7.9s3.5-7.9,7.9-7.9c4.4,0,7.9,3.5,7.9,7.9
      S118.9,123.8,114.5,123.8z"/>
    <path fill="currentColor" d="M118.4,92.9c-0.2-0.7-1-1.2-1.7-1l-20.6,5.6c-0.7,0.2-1.2,1-1,1.7c0.2,0.6,0.7,1,1.3,1
      c0.1,0,0.3,0,0.4-0.1l20.7-5.5C118.2,94.3,118.6,93.6,118.4,92.9z"/>
  </symbol>

  <symbol id="notification" viewBox="0 0 100 100">
    <path fill="currentColor" d="M90.1,65.7L81,58.6V44.5c0-11.7-6.8-22.3-17.3-27.3c-1.3-6-6.6-10.4-12.8-10.5c-6.3,0-11.4,4.4-12.7,10.5
      C27.6,22.2,21,32.8,21,44.5v14.1l-9.1,7.1c-0.5,0.4-0.9,1-0.9,1.7v10.9c0,1.2,0.8,1.7,2,1.7h23.6c1.1,7,7,12.3,14.3,12.3
      c7.2,0,13.2-5.3,14.3-12.3h23.6c1.2,0,2.3-0.5,2.3-1.7V67.4C91,66.7,90.6,66.1,90.1,65.7z M50.8,88.4c-2.7,0-5.2-1-7.1-3
      c-1.4-1.4-2.3-3.1-2.7-5l19.7,0C59.7,85,55.7,88.4,50.8,88.4z M86,76H64c-0.2,0-0.3,0.1-0.5,0.1c-0.1,0-0.3,0-0.5,0l-23.6,0
      c0,0,0,0,0,0H15v-7.5l9.1-7.1c0.5-0.4,0.9-1,0.9-1.7V44.5c0-10.4,6.2-19.7,15.8-23.8c0.7-0.3,1.2-1,1.3-1.8c0.5-4.4,4.2-7.8,8.7-7.8
      c4.5,0,8.2,3.4,8.7,7.8c0.1,0.8,0.3,1.5,1,1.8C70.1,24.8,76,34.1,76,44.5v15.2c0,0.7,0.4,1.3,0.9,1.7l9.1,7.1V76z"/>
  </symbol>
<!--
  <symbol id="volume" viewBox="0 0 150 150">
    <path fill="currentColor" d="M75.6,111.3c-0.4,0-0.9-0.1-1.2-0.3L47.1,95.3H32.7c-1.4,0-2.5-1.1-2.5-2.5V58.8c0-1.4,1.1-2.5,2.5-2.5h14.5
      l27.3-15.7c0.8-0.4,1.7-0.4,2.5,0c0.8,0.4,1.2,1.3,1.2,2.2v66.1c0,0.9-0.5,1.7-1.2,2.2C76.5,111.2,76.1,111.3,75.6,111.3z
       M35.2,90.3h12.6c0.4,0,0.9,0.1,1.2,0.3l24.1,13.9V47.1L49,61c-0.4,0.2-0.8,0.3-1.2,0.3H35.2V90.3z"/>
    <path fill="currentColor" d="M107.9,99.8c-0.6,0-1.3-0.2-1.8-0.7c-1-1-1-2.6,0-3.5c5.4-5.5,8.4-12.8,8.4-20.5c0-7.9-3.1-15.3-8.8-20.9
      c-1-1-1-2.6,0-3.5c1-1,2.6-1,3.5,0c6.6,6.5,10.3,15.2,10.3,24.5c0,9.1-3.5,17.6-9.9,24.1C109.2,99.6,108.5,99.8,107.9,99.8z"/>
    <path fill="currentColor" d="M95.8,87.7c-0.6,0-1.3-0.3-1.8-0.8c-1-1-0.9-2.6,0-3.5c2.3-2.2,3.5-5.2,3.5-8.4c0-3.3-1.4-6.4-3.9-8.7
      c-1-0.9-1.1-2.5-0.2-3.5c0.9-1,2.5-1.1,3.5-0.2c3.5,3.2,5.5,7.7,5.5,12.4c0,4.5-1.8,8.8-5,11.9C97,87.4,96.4,87.7,95.8,87.7z"/>
  </symbol>

  <symbol id="mute" viewBox="0 0 150 150">
    <path fill="currentColor" d="M76.9,40.6c-0.8-0.4-1.7-0.4-2.5,0L47.1,56.3H32.7c-1.4,0-2.5,1.1-2.5,2.5v33.9c0,1.4,1.1,2.5,2.5,2.5h14.5
      L74.4,111c0.4,0.2,0.8,0.3,1.2,0.3c0.4,0,0.9-0.1,1.3-0.3c0.8-0.4,1.2-1.3,1.2-2.2V42.8C78.1,41.9,77.7,41.1,76.9,40.6z
      M73.1,104.5L49,90.6c-0.4-0.2-0.8-0.3-1.2-0.3H35.2V61.3h12.6c0.4,0,0.9-0.1,1.2-0.3l24.1-13.9V104.5z"/>
    <path fill="currentColor" d="M108.6,75.8l6.4-6.4c1-1,1-2.6,0-3.5c-1-1-2.6-1-3.5,0l-6.4,6.4l-6.4-6.4c-1-1-2.6-1-3.5,0c-1,1-1,2.6,0,3.5
      l6.4,6.4l-6.4,6.4c-1,1-1,2.6,0,3.5c0.5,0.5,1.1,0.7,1.8,0.7s1.3-0.2,1.8-0.7l6.4-6.4l6.4,6.4c0.5,0.5,1.1,0.7,1.8,0.7
      s1.3-0.2,1.8-0.7c1-1,1-2.6,0-3.5L108.6,75.8z"/>
  </symbol> -->

  <symbol id="volume" viewBox="0 0 150 150">
    <path fill="currentColor" class="st0" d="M75.6,111.3c-0.4,0-0.9-0.1-1.2-0.3L47.1,95.3H32.7c-1.4,0-2.5-1.1-2.5-2.5V58.8c0-1.4,1.1-2.5,2.5-2.5h14.5
      l27.3-15.7c0.8-0.4,1.7-0.4,2.5,0c0.8,0.4,1.2,1.3,1.2,2.2v66.1c0,0.9-0.5,1.7-1.2,2.2C76.5,111.2,76.1,111.3,75.6,111.3z"/>
    <path fill="currentColor" class="st0" d="M107.9,99.8c-0.6,0-1.3-0.2-1.8-0.7c-1-1-1-2.6,0-3.5c5.4-5.5,8.4-12.8,8.4-20.5c0-7.9-3.1-15.3-8.8-20.9
      c-1-1-1-2.6,0-3.5c1-1,2.6-1,3.5,0c6.6,6.5,10.3,15.2,10.3,24.5c0,9.1-3.5,17.6-9.9,24.1C109.2,99.6,108.5,99.8,107.9,99.8z"/>
    <path fill="currentColor" class="st0" d="M95.8,87.7c-0.6,0-1.3-0.3-1.8-0.8c-1-1-0.9-2.6,0-3.5c2.3-2.2,3.5-5.2,3.5-8.4c0-3.3-1.4-6.4-3.9-8.7
      c-1-0.9-1.1-2.5-0.2-3.5c0.9-1,2.5-1.1,3.5-0.2c3.5,3.2,5.5,7.7,5.5,12.4c0,4.5-1.8,8.8-5,11.9C97,87.4,96.4,87.7,95.8,87.7z"/>
  </symbol>

  <symbol id="mute" viewBox="0 0 150 150">
    <path fill="currentColor" class="st0" d="M-39.7,90.9c-3.1,0-5.9,1.2-8,3.2l-28-23.2c0.8-1.6,1.3-3.4,1.3-5.4c0-2.4-0.7-4.6-1.9-6.4l28.6-23.7
    	c2.1,2,4.9,3.2,8,3.2c6.6,0,11.9-5.3,11.9-11.9s-5.3-12-11.9-12S-51.6,20-51.6,26.6c0,1.8,0.4,3.4,1.1,5l-29.1,24.1
    	c-1.9-1.3-4.2-2.1-6.8-2.1c-6.6,0-11.9,5.3-11.9,11.9s5.3,11.9,11.9,11.9c2.9,0,5.6-1.1,7.7-2.9l28.1,23.3c-0.7,1.5-1.1,3.2-1.1,5
    	c0,6.6,5.3,11.9,11.9,11.9s11.9-5.3,11.9-11.9C-27.8,96.2-33.1,90.9-39.7,90.9z M-39.7,19.4c4,0,7.2,3.3,7.2,7.2s-3.3,7.2-7.2,7.2
    	c-4,0-7.2-3.3-7.2-7.2S-43.7,19.4-39.7,19.4z M-86.3,72.7c-4,0-7.2-3.3-7.2-7.2c0-4,3.3-7.2,7.2-7.2c4,0,7.2,3.3,7.2,7.2
    	C-79.1,69.5-82.3,72.7-86.3,72.7z M-39.7,110c-4,0-7.2-3.3-7.2-7.2c0-4,3.3-7.2,7.2-7.2c4,0,7.2,3.3,7.2,7.2
    	C-32.4,106.8-35.7,110-39.7,110z"/>
  	<path fill="currentColor" class="st0" d="M75.6,111.3c-0.4,0-0.9-0.1-1.2-0.3L47.1,95.3H32.7c-1.4,0-2.5-1.1-2.5-2.5V58.8c0-1.4,1.1-2.5,2.5-2.5h14.5
  		l27.3-15.7c0.8-0.4,1.7-0.4,2.5,0c0.8,0.4,1.2,1.3,1.2,2.2v66.1c0,0.9-0.5,1.7-1.2,2.2C76.5,111.2,76.1,111.3,75.6,111.3z"/>
    <path fill="currentColor" class="st0" d="M108.6,75.8l6.4-6.4c1-1,1-2.6,0-3.5c-1-1-2.6-1-3.5,0l-6.4,6.4l-6.4-6.4c-1-1-2.6-1-3.5,0c-1,1-1,2.6,0,3.5
    	l6.4,6.4l-6.4,6.4c-1,1-1,2.6,0,3.5c0.5,0.5,1.1,0.7,1.8,0.7s1.3-0.2,1.8-0.7l6.4-6.4l6.4,6.4c0.5,0.5,1.1,0.7,1.8,0.7
    	s1.3-0.2,1.8-0.7c1-1,1-2.6,0-3.5L108.6,75.8z"/>
  </symbol>

</svg>
