<?xml version="1.0" encoding="utf-8"?>
<svg version="1.1" id="Layer_1" xmlns="http://www.w3.org/2000/svg" xmlns:xlink="http://www.w3.org/1999/xlink" x="0px" y="0px"
		 viewBox="0 0 150 150" style="enable-background:new 0 0 768 768;" xml:space="preserve">
   <path fill="#fff" class="st0" d="M75.6,111.3c-0.4,0-0.9-0.1-1.2-0.3L47.1,95.3H32.7c-1.4,0-2.5-1.1-2.5-2.5V58.8c0-1.4,1.1-2.5,2.5-2.5h14.5
     l27.3-15.7c0.8-0.4,1.7-0.4,2.5,0c0.8,0.4,1.2,1.3,1.2,2.2v66.1c0,0.9-0.5,1.7-1.2,2.2C76.5,111.2,76.1,111.3,75.6,111.3z"/>
   <path fill="#fff" class="st0" d="M107.9,99.8c-0.6,0-1.3-0.2-1.8-0.7c-1-1-1-2.6,0-3.5c5.4-5.5,8.4-12.8,8.4-20.5c0-7.9-3.1-15.3-8.8-20.9
     c-1-1-1-2.6,0-3.5c1-1,2.6-1,3.5,0c6.6,6.5,10.3,15.2,10.3,24.5c0,9.1-3.5,17.6-9.9,24.1C109.2,99.6,108.5,99.8,107.9,99.8z"/>
   <path fill="#fff" class="st0" d="M95.8,87.7c-0.6,0-1.3-0.3-1.8-0.8c-1-1-0.9-2.6,0-3.5c2.3-2.2,3.5-5.2,3.5-8.4c0-3.3-1.4-6.4-3.9-8.7
     c-1-0.9-1.1-2.5-0.2-3.5c0.9-1,2.5-1.1,3.5-0.2c3.5,3.2,5.5,7.7,5.5,12.4c0,4.5-1.8,8.8-5,11.9C97,87.4,96.4,87.7,95.8,87.7z"/>
</svg>
